<?xml version="1.0" encoding="UTF-8" standalone="no"?>
<svg
   width="982.66998"
   height="978.66998"
   version="1.1"
   viewBox="0 0 982.67 978.67"
   id="svg44"
   xmlns="http://www.w3.org/2000/svg"
   xmlns:svg="http://www.w3.org/2000/svg">
  <defs
     id="defs48" />
  <path
     d="m 426.33835,840.13289 -9.97776,-1.43142 -64.21758,-24.26758 -36.69549,-12.4632 -55.04412,-22.92413 -20.88236,-7.59936 -35.61182,-22.48725 -39.8227,-17.10806 -11.47687,-7.18756 -25.95503,-22.07957 -31.796564,-37.75167 -9.429922,-14.04589 -9.42991,-14.04585 -18.48967,-36.17776 -13.283009,-39.29633 -2.847153,-15.93149 -2.847154,-15.93147 3.840186,-35.49315 3.840187,-35.49313 4.503646,-20.64155 26.856362,-55.04411 18.677153,-38.99015 45.263458,-52.75118 29.55526,-27.52206 80.16315,-50.14864 40.84961,-17.71904 33.60444,-9.2192 58.57036,-11.36025 61.92465,-6.47421 46.05127,-5.16366 135.13504,1.58104 45.87065,12.36015 48.75018,9.24655 81.97959,24.7991 36.69552,14.73668 45.78637,16.00888 28.84828,13.08022 14.24387,10.14256 7.21937,11.20698 1.7714,9.11806 -1.24489,4.95654 -1.24489,4.95657 -8.42314,10.30048 -9.78872,5.88128 -10.11125,0.36579 -9.71839,-2.27969 -45.44236,-22.6971 -53.1795,-22.9792 -22.93448,-9.16346 -66.5122,-15.23448 -39.42535,-11.49684 -69.94904,-15.01294 -83.28002,10.16854 -57.33705,-0.0671 -86.34013,6.78607 -3.92052,2.42297 -49.41413,6.93659 -18.57566,10.41865 -43.57603,32.26275 -39.33589,34.02929 -49.51907,40.85133 -28.2256,35.69611 -20.41619,38.12837 -19.93285,41.28309 -3.827115,26.20271 6.099395,26.07371 14.16682,25.70217 29.49504,59.6317 47.85225,57.77739 26.94583,20.66734 49.14577,30.31899 18.67028,9.5247 37.56934,13.85203 52.86816,24.72513 34.40256,10.04038 39.37031,6.41144 40.01707,1.43689 21.05953,2.69218 c 14.91937,2.73414 18.27464,12.37615 19.26887,15.45844 l -0.89205,8.63625 -2.87881,7.71013 -7.7373,6.89978 -11.78804,5.78223 -15.34872,5.72647 -22.96544,4.25869 -12.8399,1.92208 -13.53827,-0.45817 -8.18797,-0.66479 z m 183.83015,-143.20932 -21.78887,-2.9851 -134.23711,-23.52448 -37.77576,-13.33426 -33.35845,-13.57594 -35.03214,-19.95351 -47.24332,-45.02779 -11.53793,-23.77734 -7.51629,-43.57602 1.3701,-17.20128 1.37013,-17.20129 3.33119,-10.77833 3.33121,-10.77833 16.74786,-26.60694 58.08013,-56.84854 33.19333,-21.8525 31.79142,-12.1479 31.72605,-8.29842 24.46022,-5.91965 31.34763,-2.4178 24.08181,-0.039 50.45653,10.02731 34.40256,0.72293 32.12167,4.84045 10.45977,1.79943 9.93511,5.23556 8.19728,7.39155 8.98991,10.2131 3.90383,11.75347 -1.06974,11.30778 -5.90897,10.29807 -11.51609,9.35818 -11.85874,2.62371 -14.77832,-2.12936 -19.71095,-7.07952 -30.05924,-5.25378 -24.87307,-5.02158 -23.35763,-3.95147 -22.09505,-2.03801 -18.38473,0.0603 -28.3976,1.15911 -25.82944,3.44885 -17.80506,6.66241 -16.53112,7.4239 -19.31188,9.73283 -27.95382,19.80556 -24.3897,26.65339 -11.15091,25.17066 1.27271,7.84274 -0.47732,12.48692 2.19679,14.62523 7.68365,14.30906 12.14273,12.30802 17.51436,14.35724 23.94417,17.57283 37.50397,22.12258 64.9211,25.33405 22.93447,4.79984 80.27322,11.42803 98.62015,4.90324 27.52207,3.04633 27.52205,0.61428 12.27157,0.46441 12.27156,-1.96765 14.44651,-4.62595 19.32908,-2.14069 42.59554,-9.06731 19.07796,-7.09244 9.09775,-4.14756 8.85936,-2.38926 10.99265,2.13742 6.23563,3.61399 5.81112,6.30719 7.58404,11.34151 v 16.64292 l -2.48523,7.12907 -2.48525,7.12907 -11.21627,6.43535 -9.87027,3.01486 -12.75819,3.82368 -23.90808,10.30822 -10.49502,3.24399 -24.34325,5.41411 -29.21467,2.37946 -47.31212,0.30707 -44.02843,0.75407 -45.6763,-3.76399 -23.77732,-2.14878 -18.6118,-0.23634 z"
     stroke-width="2.29345"
     id="path42" />
</svg>
