<?xml version="1.0" encoding="UTF-8" standalone="no"?>
<!-- Created with Inkscape (http://www.inkscape.org/) -->

<svg
   version="1.1"
   id="svg1"
   width="814.66669"
   height="816"
   viewBox="0 0 814.66669 816"
   xmlns="http://www.w3.org/2000/svg"
   xmlns:svg="http://www.w3.org/2000/svg">
  <defs
     id="defs1" />
  <g
     id="g1">
    <path
       style="fill:#000000"
       d="m 574.55557,559.46053 c -0.30556,-0.29672 -6.99139,-1.49191 -14.85741,-2.656 -17.04441,-2.52238 -56.31439,-15.20019 -84.71901,-27.35045 C 433.20407,511.58453 333.69909,461.69806 311.47769,447.4832 l -7.47768,-4.78341 v -9.8499 c 0,-12.96631 1.10131,-18.18322 3.83854,-18.18322 1.19454,0 19.26954,9.08307 40.16667,20.18461 113.73174,60.41962 184.81053,90.42225 223.53269,94.35401 27.90077,2.83297 38.42933,-5.58937 42.48849,-33.98872 1.50095,-10.50124 1.89774,-35.15711 1.93133,-120.00992 C 616.00639,252.31603 614.57593,264 629.57271,264 c 4.78282,0 10.60765,0.66639 12.94406,1.48087 l 4.24802,1.48086 -0.46212,114.1858 -0.46212,114.1858 -3.45756,14.78903 c -7.08,30.28321 -17.6358,41.91068 -43.31285,47.71015 -8.76838,1.98044 -23.16693,2.93665 -24.51457,1.62802 z m -412.7896,-13.75099 c -2.32872,-0.29169 -5.02872,-1.48817 -6,-2.65885 -1.43495,-1.72953 -1.76495,-23.14571 -1.76055,-114.25626 0.005,-111.91351 0.0113,-112.15706 3.09335,-127.4611 6.69051,-33.22206 19.07424,-46.14539 48.49165,-50.60458 37.53581,-5.68979 111.29964,20.59363 227.07626,80.91149 45.85726,23.89094 58.22836,30.70755 61.33333,33.79535 2.29361,2.28093 2.66425,4.4109 2.6494,15.22544 -0.0111,8.09976 -0.59647,13.15271 -1.64511,14.20135 -1.89474,1.89473 -6.34057,-0.25052 -59.67096,-28.79307 -68.81783,-36.83146 -122.83702,-61.57264 -164.79661,-75.47803 -27.91073,-9.2496 -36.98131,-11.00393 -53.71004,-10.38799 -11.7655,0.4332 -12.9182,0.73313 -17.69992,4.60555 -7.65704,6.20095 -10.88677,13.7195 -13.12779,30.56041 -1.5646,11.7577 -1.95203,35.2616 -1.97295,119.69136 l -0.026,105.0606 -3.27272,3.27273 c -3.31574,3.31574 -7.19487,3.78947 -18.96131,2.3156 z"
       id="path1" />
  </g>
</svg>
