<?xml version="1.0" encoding="utf-8" standalone="no"?>
<!DOCTYPE svg PUBLIC "-//W3C//DTD SVG 1.1//EN"
  "http://www.w3.org/Graphics/SVG/1.1/DTD/svg11.dtd">
<svg xmlns:xlink="http://www.w3.org/1999/xlink" width="460.8pt" height="345.6pt" viewBox="0 0 460.8 345.6" xmlns="http://www.w3.org/2000/svg" version="1.1">
 <metadata>
  <rdf:RDF xmlns:dc="http://purl.org/dc/elements/1.1/" xmlns:cc="http://creativecommons.org/ns#" xmlns:rdf="http://www.w3.org/1999/02/22-rdf-syntax-ns#">
   <cc:Work>
    <dc:type rdf:resource="http://purl.org/dc/dcmitype/StillImage"/>
    <dc:date>2026-03-23T16:46:10.868681</dc:date>
    <dc:format>image/svg+xml</dc:format>
    <dc:creator>
     <cc:Agent>
      <dc:title>Matplotlib v3.10.8, https://matplotlib.org/</dc:title>
     </cc:Agent>
    </dc:creator>
   </cc:Work>
  </rdf:RDF>
 </metadata>
 <defs>
  <style type="text/css">*{stroke-linejoin: round; stroke-linecap: butt}</style>
 </defs>
 <g id="figure_1">
  <g id="patch_1">
   <path d="M 0 345.6 
L 460.8 345.6 
L 460.8 0 
L 0 0 
L 0 345.6 
z
" style="fill: none"/>
  </g>
  <g id="axes_1">
   <g id="patch_2">
    <path d="M 57.6 307.584 
L 414.72 307.584 
L 414.72 41.472 
L 57.6 41.472 
L 57.6 307.584 
z
" style="fill: none"/>
   </g>
   <g id="matplotlib.axis_1">
    <g id="xtick_1">
     <g id="line2d_1">
      <path d="M 70.519926 307.584 
L 70.519926 41.472 
" clip-path="url(#pcec08de218)" style="fill: none; stroke-dasharray: 0.5,0.825; stroke-dashoffset: 0; stroke: #b0b0b0; stroke-width: 0.5"/>
     </g>
     <g id="line2d_2">
      <defs>
       <path id="m6e1dc56085" d="M 0 0 
L 0 3.5 
" style="stroke: #000000; stroke-width: 0.8"/>
      </defs>
      <g>
       <use xlink:href="#m6e1dc56085" x="70.519926" y="307.584" style="stroke: #000000; stroke-width: 0.8"/>
      </g>
     </g>
     <g id="text_1">
      <!-- 0.00 -->
      <g transform="translate(59.387113 322.182437) scale(0.1 -0.1)">
       <defs>
        <path id="DejaVuSans-30" d="M 2034 4250 
Q 1547 4250 1301 3770 
Q 1056 3291 1056 2328 
Q 1056 1369 1301 889 
Q 1547 409 2034 409 
Q 2525 409 2770 889 
Q 3016 1369 3016 2328 
Q 3016 3291 2770 3770 
Q 2525 4250 2034 4250 
z
M 2034 4750 
Q 2819 4750 3233 4129 
Q 3647 3509 3647 2328 
Q 3647 1150 3233 529 
Q 2819 -91 2034 -91 
Q 1250 -91 836 529 
Q 422 1150 422 2328 
Q 422 3509 836 4129 
Q 1250 4750 2034 4750 
z
" transform="scale(0.015625)"/>
        <path id="DejaVuSans-2e" d="M 684 794 
L 1344 794 
L 1344 0 
L 684 0 
L 684 794 
z
" transform="scale(0.015625)"/>
       </defs>
       <use xlink:href="#DejaVuSans-30"/>
       <use xlink:href="#DejaVuSans-2e" transform="translate(63.623047 0)"/>
       <use xlink:href="#DejaVuSans-30" transform="translate(95.410156 0)"/>
       <use xlink:href="#DejaVuSans-30" transform="translate(159.033203 0)"/>
      </g>
     </g>
    </g>
    <g id="xtick_2">
     <g id="line2d_3">
      <path d="M 136.775955 307.584 
L 136.775955 41.472 
" clip-path="url(#pcec08de218)" style="fill: none; stroke-dasharray: 0.5,0.825; stroke-dashoffset: 0; stroke: #b0b0b0; stroke-width: 0.5"/>
     </g>
     <g id="line2d_4">
      <g>
       <use xlink:href="#m6e1dc56085" x="136.775955" y="307.584" style="stroke: #000000; stroke-width: 0.8"/>
      </g>
     </g>
     <g id="text_2">
      <!-- 0.02 -->
      <g transform="translate(125.643143 322.182437) scale(0.1 -0.1)">
       <defs>
        <path id="DejaVuSans-32" d="M 1228 531 
L 3431 531 
L 3431 0 
L 469 0 
L 469 531 
Q 828 903 1448 1529 
Q 2069 2156 2228 2338 
Q 2531 2678 2651 2914 
Q 2772 3150 2772 3378 
Q 2772 3750 2511 3984 
Q 2250 4219 1831 4219 
Q 1534 4219 1204 4116 
Q 875 4013 500 3803 
L 500 4441 
Q 881 4594 1212 4672 
Q 1544 4750 1819 4750 
Q 2544 4750 2975 4387 
Q 3406 4025 3406 3419 
Q 3406 3131 3298 2873 
Q 3191 2616 2906 2266 
Q 2828 2175 2409 1742 
Q 1991 1309 1228 531 
z
" transform="scale(0.015625)"/>
       </defs>
       <use xlink:href="#DejaVuSans-30"/>
       <use xlink:href="#DejaVuSans-2e" transform="translate(63.623047 0)"/>
       <use xlink:href="#DejaVuSans-30" transform="translate(95.410156 0)"/>
       <use xlink:href="#DejaVuSans-32" transform="translate(159.033203 0)"/>
      </g>
     </g>
    </g>
    <g id="xtick_3">
     <g id="line2d_5">
      <path d="M 203.031985 307.584 
L 203.031985 41.472 
" clip-path="url(#pcec08de218)" style="fill: none; stroke-dasharray: 0.5,0.825; stroke-dashoffset: 0; stroke: #b0b0b0; stroke-width: 0.5"/>
     </g>
     <g id="line2d_6">
      <g>
       <use xlink:href="#m6e1dc56085" x="203.031985" y="307.584" style="stroke: #000000; stroke-width: 0.8"/>
      </g>
     </g>
     <g id="text_3">
      <!-- 0.04 -->
      <g transform="translate(191.899173 322.182437) scale(0.1 -0.1)">
       <defs>
        <path id="DejaVuSans-34" d="M 2419 4116 
L 825 1625 
L 2419 1625 
L 2419 4116 
z
M 2253 4666 
L 3047 4666 
L 3047 1625 
L 3713 1625 
L 3713 1100 
L 3047 1100 
L 3047 0 
L 2419 0 
L 2419 1100 
L 313 1100 
L 313 1709 
L 2253 4666 
z
" transform="scale(0.015625)"/>
       </defs>
       <use xlink:href="#DejaVuSans-30"/>
       <use xlink:href="#DejaVuSans-2e" transform="translate(63.623047 0)"/>
       <use xlink:href="#DejaVuSans-30" transform="translate(95.410156 0)"/>
       <use xlink:href="#DejaVuSans-34" transform="translate(159.033203 0)"/>
      </g>
     </g>
    </g>
    <g id="xtick_4">
     <g id="line2d_7">
      <path d="M 269.288015 307.584 
L 269.288015 41.472 
" clip-path="url(#pcec08de218)" style="fill: none; stroke-dasharray: 0.5,0.825; stroke-dashoffset: 0; stroke: #b0b0b0; stroke-width: 0.5"/>
     </g>
     <g id="line2d_8">
      <g>
       <use xlink:href="#m6e1dc56085" x="269.288015" y="307.584" style="stroke: #000000; stroke-width: 0.8"/>
      </g>
     </g>
     <g id="text_4">
      <!-- 0.06 -->
      <g transform="translate(258.155202 322.182437) scale(0.1 -0.1)">
       <defs>
        <path id="DejaVuSans-36" d="M 2113 2584 
Q 1688 2584 1439 2293 
Q 1191 2003 1191 1497 
Q 1191 994 1439 701 
Q 1688 409 2113 409 
Q 2538 409 2786 701 
Q 3034 994 3034 1497 
Q 3034 2003 2786 2293 
Q 2538 2584 2113 2584 
z
M 3366 4563 
L 3366 3988 
Q 3128 4100 2886 4159 
Q 2644 4219 2406 4219 
Q 1781 4219 1451 3797 
Q 1122 3375 1075 2522 
Q 1259 2794 1537 2939 
Q 1816 3084 2150 3084 
Q 2853 3084 3261 2657 
Q 3669 2231 3669 1497 
Q 3669 778 3244 343 
Q 2819 -91 2113 -91 
Q 1303 -91 875 529 
Q 447 1150 447 2328 
Q 447 3434 972 4092 
Q 1497 4750 2381 4750 
Q 2619 4750 2861 4703 
Q 3103 4656 3366 4563 
z
" transform="scale(0.015625)"/>
       </defs>
       <use xlink:href="#DejaVuSans-30"/>
       <use xlink:href="#DejaVuSans-2e" transform="translate(63.623047 0)"/>
       <use xlink:href="#DejaVuSans-30" transform="translate(95.410156 0)"/>
       <use xlink:href="#DejaVuSans-36" transform="translate(159.033203 0)"/>
      </g>
     </g>
    </g>
    <g id="xtick_5">
     <g id="line2d_9">
      <path d="M 335.544045 307.584 
L 335.544045 41.472 
" clip-path="url(#pcec08de218)" style="fill: none; stroke-dasharray: 0.5,0.825; stroke-dashoffset: 0; stroke: #b0b0b0; stroke-width: 0.5"/>
     </g>
     <g id="line2d_10">
      <g>
       <use xlink:href="#m6e1dc56085" x="335.544045" y="307.584" style="stroke: #000000; stroke-width: 0.8"/>
      </g>
     </g>
     <g id="text_5">
      <!-- 0.08 -->
      <g transform="translate(324.411232 322.182437) scale(0.1 -0.1)">
       <defs>
        <path id="DejaVuSans-38" d="M 2034 2216 
Q 1584 2216 1326 1975 
Q 1069 1734 1069 1313 
Q 1069 891 1326 650 
Q 1584 409 2034 409 
Q 2484 409 2743 651 
Q 3003 894 3003 1313 
Q 3003 1734 2745 1975 
Q 2488 2216 2034 2216 
z
M 1403 2484 
Q 997 2584 770 2862 
Q 544 3141 544 3541 
Q 544 4100 942 4425 
Q 1341 4750 2034 4750 
Q 2731 4750 3128 4425 
Q 3525 4100 3525 3541 
Q 3525 3141 3298 2862 
Q 3072 2584 2669 2484 
Q 3125 2378 3379 2068 
Q 3634 1759 3634 1313 
Q 3634 634 3220 271 
Q 2806 -91 2034 -91 
Q 1263 -91 848 271 
Q 434 634 434 1313 
Q 434 1759 690 2068 
Q 947 2378 1403 2484 
z
M 1172 3481 
Q 1172 3119 1398 2916 
Q 1625 2713 2034 2713 
Q 2441 2713 2670 2916 
Q 2900 3119 2900 3481 
Q 2900 3844 2670 4047 
Q 2441 4250 2034 4250 
Q 1625 4250 1398 4047 
Q 1172 3844 1172 3481 
z
" transform="scale(0.015625)"/>
       </defs>
       <use xlink:href="#DejaVuSans-30"/>
       <use xlink:href="#DejaVuSans-2e" transform="translate(63.623047 0)"/>
       <use xlink:href="#DejaVuSans-30" transform="translate(95.410156 0)"/>
       <use xlink:href="#DejaVuSans-38" transform="translate(159.033203 0)"/>
      </g>
     </g>
    </g>
    <g id="xtick_6">
     <g id="line2d_11">
      <path d="M 401.800074 307.584 
L 401.800074 41.472 
" clip-path="url(#pcec08de218)" style="fill: none; stroke-dasharray: 0.5,0.825; stroke-dashoffset: 0; stroke: #b0b0b0; stroke-width: 0.5"/>
     </g>
     <g id="line2d_12">
      <g>
       <use xlink:href="#m6e1dc56085" x="401.800074" y="307.584" style="stroke: #000000; stroke-width: 0.8"/>
      </g>
     </g>
     <g id="text_6">
      <!-- 0.10 -->
      <g transform="translate(390.667262 322.182437) scale(0.1 -0.1)">
       <defs>
        <path id="DejaVuSans-31" d="M 794 531 
L 1825 531 
L 1825 4091 
L 703 3866 
L 703 4441 
L 1819 4666 
L 2450 4666 
L 2450 531 
L 3481 531 
L 3481 0 
L 794 0 
L 794 531 
z
" transform="scale(0.015625)"/>
       </defs>
       <use xlink:href="#DejaVuSans-30"/>
       <use xlink:href="#DejaVuSans-2e" transform="translate(63.623047 0)"/>
       <use xlink:href="#DejaVuSans-31" transform="translate(95.410156 0)"/>
       <use xlink:href="#DejaVuSans-30" transform="translate(159.033203 0)"/>
      </g>
     </g>
    </g>
    <g id="text_7">
     <!-- Hole diameter, D (m) -->
     <g transform="translate(183.230312 335.860562) scale(0.1 -0.1)">
      <defs>
       <path id="DejaVuSans-48" d="M 628 4666 
L 1259 4666 
L 1259 2753 
L 3553 2753 
L 3553 4666 
L 4184 4666 
L 4184 0 
L 3553 0 
L 3553 2222 
L 1259 2222 
L 1259 0 
L 628 0 
L 628 4666 
z
" transform="scale(0.015625)"/>
       <path id="DejaVuSans-6f" d="M 1959 3097 
Q 1497 3097 1228 2736 
Q 959 2375 959 1747 
Q 959 1119 1226 758 
Q 1494 397 1959 397 
Q 2419 397 2687 759 
Q 2956 1122 2956 1747 
Q 2956 2369 2687 2733 
Q 2419 3097 1959 3097 
z
M 1959 3584 
Q 2709 3584 3137 3096 
Q 3566 2609 3566 1747 
Q 3566 888 3137 398 
Q 2709 -91 1959 -91 
Q 1206 -91 779 398 
Q 353 888 353 1747 
Q 353 2609 779 3096 
Q 1206 3584 1959 3584 
z
" transform="scale(0.015625)"/>
       <path id="DejaVuSans-6c" d="M 603 4863 
L 1178 4863 
L 1178 0 
L 603 0 
L 603 4863 
z
" transform="scale(0.015625)"/>
       <path id="DejaVuSans-65" d="M 3597 1894 
L 3597 1613 
L 953 1613 
Q 991 1019 1311 708 
Q 1631 397 2203 397 
Q 2534 397 2845 478 
Q 3156 559 3463 722 
L 3463 178 
Q 3153 47 2828 -22 
Q 2503 -91 2169 -91 
Q 1331 -91 842 396 
Q 353 884 353 1716 
Q 353 2575 817 3079 
Q 1281 3584 2069 3584 
Q 2775 3584 3186 3129 
Q 3597 2675 3597 1894 
z
M 3022 2063 
Q 3016 2534 2758 2815 
Q 2500 3097 2075 3097 
Q 1594 3097 1305 2825 
Q 1016 2553 972 2059 
L 3022 2063 
z
" transform="scale(0.015625)"/>
       <path id="DejaVuSans-20" transform="scale(0.015625)"/>
       <path id="DejaVuSans-64" d="M 2906 2969 
L 2906 4863 
L 3481 4863 
L 3481 0 
L 2906 0 
L 2906 525 
Q 2725 213 2448 61 
Q 2172 -91 1784 -91 
Q 1150 -91 751 415 
Q 353 922 353 1747 
Q 353 2572 751 3078 
Q 1150 3584 1784 3584 
Q 2172 3584 2448 3432 
Q 2725 3281 2906 2969 
z
M 947 1747 
Q 947 1113 1208 752 
Q 1469 391 1925 391 
Q 2381 391 2643 752 
Q 2906 1113 2906 1747 
Q 2906 2381 2643 2742 
Q 2381 3103 1925 3103 
Q 1469 3103 1208 2742 
Q 947 2381 947 1747 
z
" transform="scale(0.015625)"/>
       <path id="DejaVuSans-69" d="M 603 3500 
L 1178 3500 
L 1178 0 
L 603 0 
L 603 3500 
z
M 603 4863 
L 1178 4863 
L 1178 4134 
L 603 4134 
L 603 4863 
z
" transform="scale(0.015625)"/>
       <path id="DejaVuSans-61" d="M 2194 1759 
Q 1497 1759 1228 1600 
Q 959 1441 959 1056 
Q 959 750 1161 570 
Q 1363 391 1709 391 
Q 2188 391 2477 730 
Q 2766 1069 2766 1631 
L 2766 1759 
L 2194 1759 
z
M 3341 1997 
L 3341 0 
L 2766 0 
L 2766 531 
Q 2569 213 2275 61 
Q 1981 -91 1556 -91 
Q 1019 -91 701 211 
Q 384 513 384 1019 
Q 384 1609 779 1909 
Q 1175 2209 1959 2209 
L 2766 2209 
L 2766 2266 
Q 2766 2663 2505 2880 
Q 2244 3097 1772 3097 
Q 1472 3097 1187 3025 
Q 903 2953 641 2809 
L 641 3341 
Q 956 3463 1253 3523 
Q 1550 3584 1831 3584 
Q 2591 3584 2966 3190 
Q 3341 2797 3341 1997 
z
" transform="scale(0.015625)"/>
       <path id="DejaVuSans-6d" d="M 3328 2828 
Q 3544 3216 3844 3400 
Q 4144 3584 4550 3584 
Q 5097 3584 5394 3201 
Q 5691 2819 5691 2113 
L 5691 0 
L 5113 0 
L 5113 2094 
Q 5113 2597 4934 2840 
Q 4756 3084 4391 3084 
Q 3944 3084 3684 2787 
Q 3425 2491 3425 1978 
L 3425 0 
L 2847 0 
L 2847 2094 
Q 2847 2600 2669 2842 
Q 2491 3084 2119 3084 
Q 1678 3084 1418 2786 
Q 1159 2488 1159 1978 
L 1159 0 
L 581 0 
L 581 3500 
L 1159 3500 
L 1159 2956 
Q 1356 3278 1631 3431 
Q 1906 3584 2284 3584 
Q 2666 3584 2933 3390 
Q 3200 3197 3328 2828 
z
" transform="scale(0.015625)"/>
       <path id="DejaVuSans-74" d="M 1172 4494 
L 1172 3500 
L 2356 3500 
L 2356 3053 
L 1172 3053 
L 1172 1153 
Q 1172 725 1289 603 
Q 1406 481 1766 481 
L 2356 481 
L 2356 0 
L 1766 0 
Q 1100 0 847 248 
Q 594 497 594 1153 
L 594 3053 
L 172 3053 
L 172 3500 
L 594 3500 
L 594 4494 
L 1172 4494 
z
" transform="scale(0.015625)"/>
       <path id="DejaVuSans-72" d="M 2631 2963 
Q 2534 3019 2420 3045 
Q 2306 3072 2169 3072 
Q 1681 3072 1420 2755 
Q 1159 2438 1159 1844 
L 1159 0 
L 581 0 
L 581 3500 
L 1159 3500 
L 1159 2956 
Q 1341 3275 1631 3429 
Q 1922 3584 2338 3584 
Q 2397 3584 2469 3576 
Q 2541 3569 2628 3553 
L 2631 2963 
z
" transform="scale(0.015625)"/>
       <path id="DejaVuSans-2c" d="M 750 794 
L 1409 794 
L 1409 256 
L 897 -744 
L 494 -744 
L 750 256 
L 750 794 
z
" transform="scale(0.015625)"/>
       <path id="DejaVuSans-44" d="M 1259 4147 
L 1259 519 
L 2022 519 
Q 2988 519 3436 956 
Q 3884 1394 3884 2338 
Q 3884 3275 3436 3711 
Q 2988 4147 2022 4147 
L 1259 4147 
z
M 628 4666 
L 1925 4666 
Q 3281 4666 3915 4102 
Q 4550 3538 4550 2338 
Q 4550 1131 3912 565 
Q 3275 0 1925 0 
L 628 0 
L 628 4666 
z
" transform="scale(0.015625)"/>
       <path id="DejaVuSans-28" d="M 1984 4856 
Q 1566 4138 1362 3434 
Q 1159 2731 1159 2009 
Q 1159 1288 1364 580 
Q 1569 -128 1984 -844 
L 1484 -844 
Q 1016 -109 783 600 
Q 550 1309 550 2009 
Q 550 2706 781 3412 
Q 1013 4119 1484 4856 
L 1984 4856 
z
" transform="scale(0.015625)"/>
       <path id="DejaVuSans-29" d="M 513 4856 
L 1013 4856 
Q 1481 4119 1714 3412 
Q 1947 2706 1947 2009 
Q 1947 1309 1714 600 
Q 1481 -109 1013 -844 
L 513 -844 
Q 928 -128 1133 580 
Q 1338 1288 1338 2009 
Q 1338 2731 1133 3434 
Q 928 4138 513 4856 
z
" transform="scale(0.015625)"/>
      </defs>
      <use xlink:href="#DejaVuSans-48"/>
      <use xlink:href="#DejaVuSans-6f" transform="translate(75.195312 0)"/>
      <use xlink:href="#DejaVuSans-6c" transform="translate(136.376953 0)"/>
      <use xlink:href="#DejaVuSans-65" transform="translate(164.160156 0)"/>
      <use xlink:href="#DejaVuSans-20" transform="translate(225.683594 0)"/>
      <use xlink:href="#DejaVuSans-64" transform="translate(257.470703 0)"/>
      <use xlink:href="#DejaVuSans-69" transform="translate(320.947266 0)"/>
      <use xlink:href="#DejaVuSans-61" transform="translate(348.730469 0)"/>
      <use xlink:href="#DejaVuSans-6d" transform="translate(410.009766 0)"/>
      <use xlink:href="#DejaVuSans-65" transform="translate(507.421875 0)"/>
      <use xlink:href="#DejaVuSans-74" transform="translate(568.945312 0)"/>
      <use xlink:href="#DejaVuSans-65" transform="translate(608.154297 0)"/>
      <use xlink:href="#DejaVuSans-72" transform="translate(669.677734 0)"/>
      <use xlink:href="#DejaVuSans-2c" transform="translate(710.791016 0)"/>
      <use xlink:href="#DejaVuSans-20" transform="translate(742.578125 0)"/>
      <use xlink:href="#DejaVuSans-44" transform="translate(774.365234 0)"/>
      <use xlink:href="#DejaVuSans-20" transform="translate(851.367188 0)"/>
      <use xlink:href="#DejaVuSans-28" transform="translate(883.154297 0)"/>
      <use xlink:href="#DejaVuSans-6d" transform="translate(922.167969 0)"/>
      <use xlink:href="#DejaVuSans-29" transform="translate(1019.580078 0)"/>
     </g>
    </g>
   </g>
   <g id="matplotlib.axis_2">
    <g id="ytick_1">
     <g id="line2d_13">
      <path d="M 57.6 269.727463 
L 414.72 269.727463 
" clip-path="url(#pcec08de218)" style="fill: none; stroke-dasharray: 0.5,0.825; stroke-dashoffset: 0; stroke: #b0b0b0; stroke-width: 0.5"/>
     </g>
     <g id="line2d_14">
      <defs>
       <path id="m60860d4cb0" d="M 0 0 
L -3.5 0 
" style="stroke: #000000; stroke-width: 0.8"/>
      </defs>
      <g>
       <use xlink:href="#m60860d4cb0" x="57.6" y="269.727463" style="stroke: #000000; stroke-width: 0.8"/>
      </g>
     </g>
     <g id="text_8">
      <!-- $\mathdefault{10^{1}}$ -->
      <g transform="translate(33 273.526682) scale(0.1 -0.1)">
       <use xlink:href="#DejaVuSans-31" transform="translate(0 0.684375)"/>
       <use xlink:href="#DejaVuSans-30" transform="translate(63.623047 0.684375)"/>
       <use xlink:href="#DejaVuSans-31" transform="translate(128.203125 38.965625) scale(0.7)"/>
      </g>
     </g>
    </g>
    <g id="ytick_2">
     <g id="line2d_15">
      <path d="M 57.6 226.051494 
L 414.72 226.051494 
" clip-path="url(#pcec08de218)" style="fill: none; stroke-dasharray: 0.5,0.825; stroke-dashoffset: 0; stroke: #b0b0b0; stroke-width: 0.5"/>
     </g>
     <g id="line2d_16">
      <g>
       <use xlink:href="#m60860d4cb0" x="57.6" y="226.051494" style="stroke: #000000; stroke-width: 0.8"/>
      </g>
     </g>
     <g id="text_9">
      <!-- $\mathdefault{10^{2}}$ -->
      <g transform="translate(33 229.850713) scale(0.1 -0.1)">
       <use xlink:href="#DejaVuSans-31" transform="translate(0 0.765625)"/>
       <use xlink:href="#DejaVuSans-30" transform="translate(63.623047 0.765625)"/>
       <use xlink:href="#DejaVuSans-32" transform="translate(128.203125 39.046875) scale(0.7)"/>
      </g>
     </g>
    </g>
    <g id="ytick_3">
     <g id="line2d_17">
      <path d="M 57.6 182.375525 
L 414.72 182.375525 
" clip-path="url(#pcec08de218)" style="fill: none; stroke-dasharray: 0.5,0.825; stroke-dashoffset: 0; stroke: #b0b0b0; stroke-width: 0.5"/>
     </g>
     <g id="line2d_18">
      <g>
       <use xlink:href="#m60860d4cb0" x="57.6" y="182.375525" style="stroke: #000000; stroke-width: 0.8"/>
      </g>
     </g>
     <g id="text_10">
      <!-- $\mathdefault{10^{3}}$ -->
      <g transform="translate(33 186.174744) scale(0.1 -0.1)">
       <defs>
        <path id="DejaVuSans-33" d="M 2597 2516 
Q 3050 2419 3304 2112 
Q 3559 1806 3559 1356 
Q 3559 666 3084 287 
Q 2609 -91 1734 -91 
Q 1441 -91 1130 -33 
Q 819 25 488 141 
L 488 750 
Q 750 597 1062 519 
Q 1375 441 1716 441 
Q 2309 441 2620 675 
Q 2931 909 2931 1356 
Q 2931 1769 2642 2001 
Q 2353 2234 1838 2234 
L 1294 2234 
L 1294 2753 
L 1863 2753 
Q 2328 2753 2575 2939 
Q 2822 3125 2822 3475 
Q 2822 3834 2567 4026 
Q 2313 4219 1838 4219 
Q 1578 4219 1281 4162 
Q 984 4106 628 3988 
L 628 4550 
Q 988 4650 1302 4700 
Q 1616 4750 1894 4750 
Q 2613 4750 3031 4423 
Q 3450 4097 3450 3541 
Q 3450 3153 3228 2886 
Q 3006 2619 2597 2516 
z
" transform="scale(0.015625)"/>
       </defs>
       <use xlink:href="#DejaVuSans-31" transform="translate(0 0.765625)"/>
       <use xlink:href="#DejaVuSans-30" transform="translate(63.623047 0.765625)"/>
       <use xlink:href="#DejaVuSans-33" transform="translate(128.203125 39.046875) scale(0.7)"/>
      </g>
     </g>
    </g>
    <g id="ytick_4">
     <g id="line2d_19">
      <path d="M 57.6 138.699556 
L 414.72 138.699556 
" clip-path="url(#pcec08de218)" style="fill: none; stroke-dasharray: 0.5,0.825; stroke-dashoffset: 0; stroke: #b0b0b0; stroke-width: 0.5"/>
     </g>
     <g id="line2d_20">
      <g>
       <use xlink:href="#m60860d4cb0" x="57.6" y="138.699556" style="stroke: #000000; stroke-width: 0.8"/>
      </g>
     </g>
     <g id="text_11">
      <!-- $\mathdefault{10^{4}}$ -->
      <g transform="translate(33 142.498775) scale(0.1 -0.1)">
       <use xlink:href="#DejaVuSans-31" transform="translate(0 0.684375)"/>
       <use xlink:href="#DejaVuSans-30" transform="translate(63.623047 0.684375)"/>
       <use xlink:href="#DejaVuSans-34" transform="translate(128.203125 38.965625) scale(0.7)"/>
      </g>
     </g>
    </g>
    <g id="ytick_5">
     <g id="line2d_21">
      <path d="M 57.6 95.023588 
L 414.72 95.023588 
" clip-path="url(#pcec08de218)" style="fill: none; stroke-dasharray: 0.5,0.825; stroke-dashoffset: 0; stroke: #b0b0b0; stroke-width: 0.5"/>
     </g>
     <g id="line2d_22">
      <g>
       <use xlink:href="#m60860d4cb0" x="57.6" y="95.023588" style="stroke: #000000; stroke-width: 0.8"/>
      </g>
     </g>
     <g id="text_12">
      <!-- $\mathdefault{10^{5}}$ -->
      <g transform="translate(33 98.822806) scale(0.1 -0.1)">
       <defs>
        <path id="DejaVuSans-35" d="M 691 4666 
L 3169 4666 
L 3169 4134 
L 1269 4134 
L 1269 2991 
Q 1406 3038 1543 3061 
Q 1681 3084 1819 3084 
Q 2600 3084 3056 2656 
Q 3513 2228 3513 1497 
Q 3513 744 3044 326 
Q 2575 -91 1722 -91 
Q 1428 -91 1123 -41 
Q 819 9 494 109 
L 494 744 
Q 775 591 1075 516 
Q 1375 441 1709 441 
Q 2250 441 2565 725 
Q 2881 1009 2881 1497 
Q 2881 1984 2565 2268 
Q 2250 2553 1709 2553 
Q 1456 2553 1204 2497 
Q 953 2441 691 2322 
L 691 4666 
z
" transform="scale(0.015625)"/>
       </defs>
       <use xlink:href="#DejaVuSans-31" transform="translate(0 0.684375)"/>
       <use xlink:href="#DejaVuSans-30" transform="translate(63.623047 0.684375)"/>
       <use xlink:href="#DejaVuSans-35" transform="translate(128.203125 38.965625) scale(0.7)"/>
      </g>
     </g>
    </g>
    <g id="ytick_6">
     <g id="line2d_23">
      <path d="M 57.6 51.347619 
L 414.72 51.347619 
" clip-path="url(#pcec08de218)" style="fill: none; stroke-dasharray: 0.5,0.825; stroke-dashoffset: 0; stroke: #b0b0b0; stroke-width: 0.5"/>
     </g>
     <g id="line2d_24">
      <g>
       <use xlink:href="#m60860d4cb0" x="57.6" y="51.347619" style="stroke: #000000; stroke-width: 0.8"/>
      </g>
     </g>
     <g id="text_13">
      <!-- $\mathdefault{10^{6}}$ -->
      <g transform="translate(33 55.146837) scale(0.1 -0.1)">
       <use xlink:href="#DejaVuSans-31" transform="translate(0 0.765625)"/>
       <use xlink:href="#DejaVuSans-30" transform="translate(63.623047 0.765625)"/>
       <use xlink:href="#DejaVuSans-36" transform="translate(128.203125 39.046875) scale(0.7)"/>
      </g>
     </g>
    </g>
    <g id="ytick_7">
     <g id="line2d_25">
      <defs>
       <path id="m8730652a89" d="M 0 0 
L -2 0 
" style="stroke: #000000; stroke-width: 0.6"/>
      </defs>
      <g>
       <use xlink:href="#m8730652a89" x="57.6" y="300.255655" style="stroke: #000000; stroke-width: 0.6"/>
      </g>
     </g>
    </g>
    <g id="ytick_8">
     <g id="line2d_26">
      <g>
       <use xlink:href="#m8730652a89" x="57.6" y="292.564699" style="stroke: #000000; stroke-width: 0.6"/>
      </g>
     </g>
    </g>
    <g id="ytick_9">
     <g id="line2d_27">
      <g>
       <use xlink:href="#m8730652a89" x="57.6" y="287.107879" style="stroke: #000000; stroke-width: 0.6"/>
      </g>
     </g>
    </g>
    <g id="ytick_10">
     <g id="line2d_28">
      <g>
       <use xlink:href="#m8730652a89" x="57.6" y="282.87524" style="stroke: #000000; stroke-width: 0.6"/>
      </g>
     </g>
    </g>
    <g id="ytick_11">
     <g id="line2d_29">
      <g>
       <use xlink:href="#m8730652a89" x="57.6" y="279.416922" style="stroke: #000000; stroke-width: 0.6"/>
      </g>
     </g>
    </g>
    <g id="ytick_12">
     <g id="line2d_30">
      <g>
       <use xlink:href="#m8730652a89" x="57.6" y="276.492956" style="stroke: #000000; stroke-width: 0.6"/>
      </g>
     </g>
    </g>
    <g id="ytick_13">
     <g id="line2d_31">
      <g>
       <use xlink:href="#m8730652a89" x="57.6" y="273.960102" style="stroke: #000000; stroke-width: 0.6"/>
      </g>
     </g>
    </g>
    <g id="ytick_14">
     <g id="line2d_32">
      <g>
       <use xlink:href="#m8730652a89" x="57.6" y="271.725966" style="stroke: #000000; stroke-width: 0.6"/>
      </g>
     </g>
    </g>
    <g id="ytick_15">
     <g id="line2d_33">
      <g>
       <use xlink:href="#m8730652a89" x="57.6" y="256.579686" style="stroke: #000000; stroke-width: 0.6"/>
      </g>
     </g>
    </g>
    <g id="ytick_16">
     <g id="line2d_34">
      <g>
       <use xlink:href="#m8730652a89" x="57.6" y="248.88873" style="stroke: #000000; stroke-width: 0.6"/>
      </g>
     </g>
    </g>
    <g id="ytick_17">
     <g id="line2d_35">
      <g>
       <use xlink:href="#m8730652a89" x="57.6" y="243.43191" style="stroke: #000000; stroke-width: 0.6"/>
      </g>
     </g>
    </g>
    <g id="ytick_18">
     <g id="line2d_36">
      <g>
       <use xlink:href="#m8730652a89" x="57.6" y="239.199271" style="stroke: #000000; stroke-width: 0.6"/>
      </g>
     </g>
    </g>
    <g id="ytick_19">
     <g id="line2d_37">
      <g>
       <use xlink:href="#m8730652a89" x="57.6" y="235.740953" style="stroke: #000000; stroke-width: 0.6"/>
      </g>
     </g>
    </g>
    <g id="ytick_20">
     <g id="line2d_38">
      <g>
       <use xlink:href="#m8730652a89" x="57.6" y="232.816987" style="stroke: #000000; stroke-width: 0.6"/>
      </g>
     </g>
    </g>
    <g id="ytick_21">
     <g id="line2d_39">
      <g>
       <use xlink:href="#m8730652a89" x="57.6" y="230.284133" style="stroke: #000000; stroke-width: 0.6"/>
      </g>
     </g>
    </g>
    <g id="ytick_22">
     <g id="line2d_40">
      <g>
       <use xlink:href="#m8730652a89" x="57.6" y="228.049997" style="stroke: #000000; stroke-width: 0.6"/>
      </g>
     </g>
    </g>
    <g id="ytick_23">
     <g id="line2d_41">
      <g>
       <use xlink:href="#m8730652a89" x="57.6" y="212.903717" style="stroke: #000000; stroke-width: 0.6"/>
      </g>
     </g>
    </g>
    <g id="ytick_24">
     <g id="line2d_42">
      <g>
       <use xlink:href="#m8730652a89" x="57.6" y="205.212761" style="stroke: #000000; stroke-width: 0.6"/>
      </g>
     </g>
    </g>
    <g id="ytick_25">
     <g id="line2d_43">
      <g>
       <use xlink:href="#m8730652a89" x="57.6" y="199.755941" style="stroke: #000000; stroke-width: 0.6"/>
      </g>
     </g>
    </g>
    <g id="ytick_26">
     <g id="line2d_44">
      <g>
       <use xlink:href="#m8730652a89" x="57.6" y="195.523302" style="stroke: #000000; stroke-width: 0.6"/>
      </g>
     </g>
    </g>
    <g id="ytick_27">
     <g id="line2d_45">
      <g>
       <use xlink:href="#m8730652a89" x="57.6" y="192.064984" style="stroke: #000000; stroke-width: 0.6"/>
      </g>
     </g>
    </g>
    <g id="ytick_28">
     <g id="line2d_46">
      <g>
       <use xlink:href="#m8730652a89" x="57.6" y="189.141019" style="stroke: #000000; stroke-width: 0.6"/>
      </g>
     </g>
    </g>
    <g id="ytick_29">
     <g id="line2d_47">
      <g>
       <use xlink:href="#m8730652a89" x="57.6" y="186.608164" style="stroke: #000000; stroke-width: 0.6"/>
      </g>
     </g>
    </g>
    <g id="ytick_30">
     <g id="line2d_48">
      <g>
       <use xlink:href="#m8730652a89" x="57.6" y="184.374028" style="stroke: #000000; stroke-width: 0.6"/>
      </g>
     </g>
    </g>
    <g id="ytick_31">
     <g id="line2d_49">
      <g>
       <use xlink:href="#m8730652a89" x="57.6" y="169.227749" style="stroke: #000000; stroke-width: 0.6"/>
      </g>
     </g>
    </g>
    <g id="ytick_32">
     <g id="line2d_50">
      <g>
       <use xlink:href="#m8730652a89" x="57.6" y="161.536792" style="stroke: #000000; stroke-width: 0.6"/>
      </g>
     </g>
    </g>
    <g id="ytick_33">
     <g id="line2d_51">
      <g>
       <use xlink:href="#m8730652a89" x="57.6" y="156.079972" style="stroke: #000000; stroke-width: 0.6"/>
      </g>
     </g>
    </g>
    <g id="ytick_34">
     <g id="line2d_52">
      <g>
       <use xlink:href="#m8730652a89" x="57.6" y="151.847333" style="stroke: #000000; stroke-width: 0.6"/>
      </g>
     </g>
    </g>
    <g id="ytick_35">
     <g id="line2d_53">
      <g>
       <use xlink:href="#m8730652a89" x="57.6" y="148.389016" style="stroke: #000000; stroke-width: 0.6"/>
      </g>
     </g>
    </g>
    <g id="ytick_36">
     <g id="line2d_54">
      <g>
       <use xlink:href="#m8730652a89" x="57.6" y="145.46505" style="stroke: #000000; stroke-width: 0.6"/>
      </g>
     </g>
    </g>
    <g id="ytick_37">
     <g id="line2d_55">
      <g>
       <use xlink:href="#m8730652a89" x="57.6" y="142.932195" style="stroke: #000000; stroke-width: 0.6"/>
      </g>
     </g>
    </g>
    <g id="ytick_38">
     <g id="line2d_56">
      <g>
       <use xlink:href="#m8730652a89" x="57.6" y="140.698059" style="stroke: #000000; stroke-width: 0.6"/>
      </g>
     </g>
    </g>
    <g id="ytick_39">
     <g id="line2d_57">
      <g>
       <use xlink:href="#m8730652a89" x="57.6" y="125.55178" style="stroke: #000000; stroke-width: 0.6"/>
      </g>
     </g>
    </g>
    <g id="ytick_40">
     <g id="line2d_58">
      <g>
       <use xlink:href="#m8730652a89" x="57.6" y="117.860823" style="stroke: #000000; stroke-width: 0.6"/>
      </g>
     </g>
    </g>
    <g id="ytick_41">
     <g id="line2d_59">
      <g>
       <use xlink:href="#m8730652a89" x="57.6" y="112.404003" style="stroke: #000000; stroke-width: 0.6"/>
      </g>
     </g>
    </g>
    <g id="ytick_42">
     <g id="line2d_60">
      <g>
       <use xlink:href="#m8730652a89" x="57.6" y="108.171364" style="stroke: #000000; stroke-width: 0.6"/>
      </g>
     </g>
    </g>
    <g id="ytick_43">
     <g id="line2d_61">
      <g>
       <use xlink:href="#m8730652a89" x="57.6" y="104.713047" style="stroke: #000000; stroke-width: 0.6"/>
      </g>
     </g>
    </g>
    <g id="ytick_44">
     <g id="line2d_62">
      <g>
       <use xlink:href="#m8730652a89" x="57.6" y="101.789081" style="stroke: #000000; stroke-width: 0.6"/>
      </g>
     </g>
    </g>
    <g id="ytick_45">
     <g id="line2d_63">
      <g>
       <use xlink:href="#m8730652a89" x="57.6" y="99.256226" style="stroke: #000000; stroke-width: 0.6"/>
      </g>
     </g>
    </g>
    <g id="ytick_46">
     <g id="line2d_64">
      <g>
       <use xlink:href="#m8730652a89" x="57.6" y="97.02209" style="stroke: #000000; stroke-width: 0.6"/>
      </g>
     </g>
    </g>
    <g id="ytick_47">
     <g id="line2d_65">
      <g>
       <use xlink:href="#m8730652a89" x="57.6" y="81.875811" style="stroke: #000000; stroke-width: 0.6"/>
      </g>
     </g>
    </g>
    <g id="ytick_48">
     <g id="line2d_66">
      <g>
       <use xlink:href="#m8730652a89" x="57.6" y="74.184855" style="stroke: #000000; stroke-width: 0.6"/>
      </g>
     </g>
    </g>
    <g id="ytick_49">
     <g id="line2d_67">
      <g>
       <use xlink:href="#m8730652a89" x="57.6" y="68.728034" style="stroke: #000000; stroke-width: 0.6"/>
      </g>
     </g>
    </g>
    <g id="ytick_50">
     <g id="line2d_68">
      <g>
       <use xlink:href="#m8730652a89" x="57.6" y="64.495395" style="stroke: #000000; stroke-width: 0.6"/>
      </g>
     </g>
    </g>
    <g id="ytick_51">
     <g id="line2d_69">
      <g>
       <use xlink:href="#m8730652a89" x="57.6" y="61.037078" style="stroke: #000000; stroke-width: 0.6"/>
      </g>
     </g>
    </g>
    <g id="ytick_52">
     <g id="line2d_70">
      <g>
       <use xlink:href="#m8730652a89" x="57.6" y="58.113112" style="stroke: #000000; stroke-width: 0.6"/>
      </g>
     </g>
    </g>
    <g id="ytick_53">
     <g id="line2d_71">
      <g>
       <use xlink:href="#m8730652a89" x="57.6" y="55.580257" style="stroke: #000000; stroke-width: 0.6"/>
      </g>
     </g>
    </g>
    <g id="ytick_54">
     <g id="line2d_72">
      <g>
       <use xlink:href="#m8730652a89" x="57.6" y="53.346121" style="stroke: #000000; stroke-width: 0.6"/>
      </g>
     </g>
    </g>
    <g id="text_14">
     <!-- Time taken to flood, t (hour) -->
     <g transform="translate(26.920312 245.055344) rotate(-90) scale(0.1 -0.1)">
      <defs>
       <path id="DejaVuSans-54" d="M -19 4666 
L 3928 4666 
L 3928 4134 
L 2272 4134 
L 2272 0 
L 1638 0 
L 1638 4134 
L -19 4134 
L -19 4666 
z
" transform="scale(0.015625)"/>
       <path id="DejaVuSans-6b" d="M 581 4863 
L 1159 4863 
L 1159 1991 
L 2875 3500 
L 3609 3500 
L 1753 1863 
L 3688 0 
L 2938 0 
L 1159 1709 
L 1159 0 
L 581 0 
L 581 4863 
z
" transform="scale(0.015625)"/>
       <path id="DejaVuSans-6e" d="M 3513 2113 
L 3513 0 
L 2938 0 
L 2938 2094 
Q 2938 2591 2744 2837 
Q 2550 3084 2163 3084 
Q 1697 3084 1428 2787 
Q 1159 2491 1159 1978 
L 1159 0 
L 581 0 
L 581 3500 
L 1159 3500 
L 1159 2956 
Q 1366 3272 1645 3428 
Q 1925 3584 2291 3584 
Q 2894 3584 3203 3211 
Q 3513 2838 3513 2113 
z
" transform="scale(0.015625)"/>
       <path id="DejaVuSans-66" d="M 2375 4863 
L 2375 4384 
L 1825 4384 
Q 1516 4384 1395 4259 
Q 1275 4134 1275 3809 
L 1275 3500 
L 2222 3500 
L 2222 3053 
L 1275 3053 
L 1275 0 
L 697 0 
L 697 3053 
L 147 3053 
L 147 3500 
L 697 3500 
L 697 3744 
Q 697 4328 969 4595 
Q 1241 4863 1831 4863 
L 2375 4863 
z
" transform="scale(0.015625)"/>
       <path id="DejaVuSans-68" d="M 3513 2113 
L 3513 0 
L 2938 0 
L 2938 2094 
Q 2938 2591 2744 2837 
Q 2550 3084 2163 3084 
Q 1697 3084 1428 2787 
Q 1159 2491 1159 1978 
L 1159 0 
L 581 0 
L 581 4863 
L 1159 4863 
L 1159 2956 
Q 1366 3272 1645 3428 
Q 1925 3584 2291 3584 
Q 2894 3584 3203 3211 
Q 3513 2838 3513 2113 
z
" transform="scale(0.015625)"/>
       <path id="DejaVuSans-75" d="M 544 1381 
L 544 3500 
L 1119 3500 
L 1119 1403 
Q 1119 906 1312 657 
Q 1506 409 1894 409 
Q 2359 409 2629 706 
Q 2900 1003 2900 1516 
L 2900 3500 
L 3475 3500 
L 3475 0 
L 2900 0 
L 2900 538 
Q 2691 219 2414 64 
Q 2138 -91 1772 -91 
Q 1169 -91 856 284 
Q 544 659 544 1381 
z
M 1991 3584 
L 1991 3584 
z
" transform="scale(0.015625)"/>
      </defs>
      <use xlink:href="#DejaVuSans-54"/>
      <use xlink:href="#DejaVuSans-69" transform="translate(57.958984 0)"/>
      <use xlink:href="#DejaVuSans-6d" transform="translate(85.742188 0)"/>
      <use xlink:href="#DejaVuSans-65" transform="translate(183.154297 0)"/>
      <use xlink:href="#DejaVuSans-20" transform="translate(244.677734 0)"/>
      <use xlink:href="#DejaVuSans-74" transform="translate(276.464844 0)"/>
      <use xlink:href="#DejaVuSans-61" transform="translate(315.673828 0)"/>
      <use xlink:href="#DejaVuSans-6b" transform="translate(376.953125 0)"/>
      <use xlink:href="#DejaVuSans-65" transform="translate(431.238281 0)"/>
      <use xlink:href="#DejaVuSans-6e" transform="translate(492.761719 0)"/>
      <use xlink:href="#DejaVuSans-20" transform="translate(556.140625 0)"/>
      <use xlink:href="#DejaVuSans-74" transform="translate(587.927734 0)"/>
      <use xlink:href="#DejaVuSans-6f" transform="translate(627.136719 0)"/>
      <use xlink:href="#DejaVuSans-20" transform="translate(688.318359 0)"/>
      <use xlink:href="#DejaVuSans-66" transform="translate(720.105469 0)"/>
      <use xlink:href="#DejaVuSans-6c" transform="translate(755.310547 0)"/>
      <use xlink:href="#DejaVuSans-6f" transform="translate(783.09375 0)"/>
      <use xlink:href="#DejaVuSans-6f" transform="translate(844.275391 0)"/>
      <use xlink:href="#DejaVuSans-64" transform="translate(905.457031 0)"/>
      <use xlink:href="#DejaVuSans-2c" transform="translate(968.933594 0)"/>
      <use xlink:href="#DejaVuSans-20" transform="translate(1000.720703 0)"/>
      <use xlink:href="#DejaVuSans-74" transform="translate(1032.507812 0)"/>
      <use xlink:href="#DejaVuSans-20" transform="translate(1071.716797 0)"/>
      <use xlink:href="#DejaVuSans-28" transform="translate(1103.503906 0)"/>
      <use xlink:href="#DejaVuSans-68" transform="translate(1142.517578 0)"/>
      <use xlink:href="#DejaVuSans-6f" transform="translate(1205.896484 0)"/>
      <use xlink:href="#DejaVuSans-75" transform="translate(1267.078125 0)"/>
      <use xlink:href="#DejaVuSans-72" transform="translate(1330.457031 0)"/>
      <use xlink:href="#DejaVuSans-29" transform="translate(1371.570312 0)"/>
     </g>
    </g>
   </g>
   <g id="line2d_73">
    <path d="M 73.832727 121.165399 
L 77.145529 147.460952 
L 80.45833 162.842865 
L 83.771132 173.756506 
L 87.083933 182.221783 
L 90.396735 189.138418 
L 93.709536 194.98635 
L 97.022338 200.052059 
L 100.335139 204.520331 
L 103.647941 208.517336 
L 106.960742 212.133068 
L 110.273544 215.433972 
L 113.586345 218.470509 
L 116.899147 221.281904 
L 120.211948 223.899249 
L 123.52475 226.347612 
L 126.837551 228.647496 
L 130.150353 230.815884 
L 133.463154 232.867004 
L 136.775955 234.81289 
L 140.088757 236.663816 
L 143.401558 238.428621 
L 146.71436 240.114964 
L 150.027161 241.729525 
L 153.339963 243.278167 
L 156.652764 244.766063 
L 159.965566 246.197797 
L 163.278367 247.577457 
L 166.591169 248.908698 
L 169.90397 250.194803 
L 173.216772 251.438733 
L 176.529573 252.643166 
L 179.842375 253.810534 
L 183.155176 254.94305 
L 186.467978 256.042734 
L 189.780779 257.111438 
L 193.093581 258.150858 
L 196.406382 259.162557 
L 199.719184 260.147975 
L 203.031985 261.108443 
L 206.344787 262.045194 
L 209.657588 262.95937 
L 212.97039 263.852034 
L 216.283191 264.724175 
L 219.595993 265.576715 
L 222.908794 266.410517 
L 226.221596 267.226387 
L 229.534397 268.025079 
L 232.847199 268.807301 
L 236.16 269.573721 
L 239.472801 270.324962 
L 242.785603 271.061616 
L 246.098404 271.784237 
L 249.411206 272.493351 
L 252.724007 273.189452 
L 256.036809 273.87301 
L 259.34961 274.54447 
L 262.662412 275.204251 
L 265.975213 275.852753 
L 269.288015 276.490356 
L 272.600816 277.117419 
L 275.913618 277.734286 
L 279.226419 278.341282 
L 282.539221 278.938719 
L 285.852022 279.526893 
L 289.164824 280.106087 
L 292.477625 280.676571 
L 295.790427 281.238603 
L 299.103228 281.79243 
L 302.41603 282.338288 
L 305.728831 282.876403 
L 309.041633 283.406991 
L 312.354434 283.930261 
L 315.667236 284.446412 
L 318.980037 284.955633 
L 322.292839 285.458111 
L 325.60564 285.954019 
L 328.918442 286.443529 
L 332.231243 286.926802 
L 335.544045 287.403997 
L 338.856846 287.875263 
L 342.169647 288.340747 
L 345.482449 288.800589 
L 348.79525 289.254923 
L 352.108052 289.703881 
L 355.420853 290.147587 
L 358.733655 290.586164 
L 362.046456 291.019728 
L 365.359258 291.448393 
L 368.672059 291.872269 
L 371.984861 292.29146 
L 375.297662 292.706071 
L 378.610464 293.116199 
L 381.923265 293.52194 
L 385.236067 293.923388 
L 388.548868 294.320632 
L 391.86167 294.71376 
L 395.174471 295.102855 
L 398.487273 295.488 
" clip-path="url(#pcec08de218)" style="fill: none; stroke: #1f77b4; stroke-width: 1.5; stroke-linecap: square"/>
   </g>
   <g id="line2d_74">
    <path d="M 73.832727 119.055645 
L 77.145529 145.351198 
L 80.45833 160.733111 
L 83.771132 171.646752 
L 87.083933 180.112029 
L 90.396735 187.028665 
L 93.709536 192.876596 
L 97.022338 197.942305 
L 100.335139 202.410577 
L 103.647941 206.407583 
L 106.960742 210.023314 
L 110.273544 213.324218 
L 113.586345 216.360755 
L 116.899147 219.17215 
L 120.211948 221.789495 
L 123.52475 224.237859 
L 126.837551 226.537743 
L 130.150353 228.706131 
L 133.463154 230.75725 
L 136.775955 232.703136 
L 140.088757 234.554063 
L 143.401558 236.318867 
L 146.71436 238.00521 
L 150.027161 239.619772 
L 153.339963 241.168414 
L 156.652764 242.656309 
L 159.965566 244.088043 
L 163.278367 245.467703 
L 166.591169 246.798944 
L 169.90397 248.085049 
L 173.216772 249.328979 
L 176.529573 250.533412 
L 179.842375 251.70078 
L 183.155176 252.833296 
L 186.467978 253.932981 
L 189.780779 255.001684 
L 193.093581 256.041104 
L 196.406382 257.052803 
L 199.719184 258.038222 
L 203.031985 258.99869 
L 206.344787 259.93544 
L 209.657588 260.849616 
L 212.97039 261.74228 
L 216.283191 262.614421 
L 219.595993 263.466962 
L 222.908794 264.300764 
L 226.221596 265.116633 
L 229.534397 265.915325 
L 232.847199 266.697548 
L 236.16 267.463967 
L 239.472801 268.215209 
L 242.785603 268.951862 
L 246.098404 269.674483 
L 249.411206 270.383597 
L 252.724007 271.079698 
L 256.036809 271.763257 
L 259.34961 272.434716 
L 262.662412 273.094497 
L 265.975213 273.743 
L 269.288015 274.380602 
L 272.600816 275.007666 
L 275.913618 275.624532 
L 279.226419 276.231529 
L 282.539221 276.828966 
L 285.852022 277.41714 
L 289.164824 277.996334 
L 292.477625 278.566818 
L 295.790427 279.128849 
L 299.103228 279.682676 
L 302.41603 280.228534 
L 305.728831 280.766649 
L 309.041633 281.297238 
L 312.354434 281.820508 
L 315.667236 282.336658 
L 318.980037 282.84588 
L 322.292839 283.348357 
L 325.60564 283.844265 
L 328.918442 284.333775 
L 332.231243 284.817049 
L 335.544045 285.294243 
L 338.856846 285.76551 
L 342.169647 286.230994 
L 345.482449 286.690835 
L 348.79525 287.145169 
L 352.108052 287.594127 
L 355.420853 288.037833 
L 358.733655 288.47641 
L 362.046456 288.909974 
L 365.359258 289.33864 
L 368.672059 289.762515 
L 371.984861 290.181707 
L 375.297662 290.596317 
L 378.610464 291.006445 
L 381.923265 291.412186 
L 385.236067 291.813634 
L 388.548868 292.210878 
L 391.86167 292.604006 
L 395.174471 292.993101 
L 398.487273 293.378246 
" clip-path="url(#pcec08de218)" style="fill: none; stroke: #ff7f0e; stroke-width: 1.5; stroke-linecap: square"/>
   </g>
   <g id="line2d_75">
    <path d="M 73.832727 53.568 
L 77.145529 79.863553 
L 80.45833 95.245466 
L 83.771132 106.159107 
L 87.083933 114.624384 
L 90.396735 121.54102 
L 93.709536 127.388951 
L 97.022338 132.45466 
L 100.335139 136.922932 
L 103.647941 140.919938 
L 106.960742 144.535669 
L 110.273544 147.836573 
L 113.586345 150.87311 
L 116.899147 153.684505 
L 120.211948 156.30185 
L 123.52475 158.750214 
L 126.837551 161.050098 
L 130.150353 163.218486 
L 133.463154 165.269605 
L 136.775955 167.215491 
L 140.088757 169.066418 
L 143.401558 170.831222 
L 146.71436 172.517565 
L 150.027161 174.132126 
L 153.339963 175.680769 
L 156.652764 177.168664 
L 159.965566 178.600398 
L 163.278367 179.980058 
L 166.591169 181.311299 
L 169.90397 182.597404 
L 173.216772 183.841334 
L 176.529573 185.045767 
L 179.842375 186.213135 
L 183.155176 187.345651 
L 186.467978 188.445336 
L 189.780779 189.514039 
L 193.093581 190.553459 
L 196.406382 191.565158 
L 199.719184 192.550576 
L 203.031985 193.511045 
L 206.344787 194.447795 
L 209.657588 195.361971 
L 212.97039 196.254635 
L 216.283191 197.126776 
L 219.595993 197.979317 
L 222.908794 198.813119 
L 226.221596 199.628988 
L 229.534397 200.42768 
L 232.847199 201.209903 
L 236.16 201.976322 
L 239.472801 202.727564 
L 242.785603 203.464217 
L 246.098404 204.186838 
L 249.411206 204.895952 
L 252.724007 205.592053 
L 256.036809 206.275612 
L 259.34961 206.947071 
L 262.662412 207.606852 
L 265.975213 208.255355 
L 269.288015 208.892957 
L 272.600816 209.520021 
L 275.913618 210.136887 
L 279.226419 210.743884 
L 282.539221 211.341321 
L 285.852022 211.929495 
L 289.164824 212.508689 
L 292.477625 213.079172 
L 295.790427 213.641204 
L 299.103228 214.195031 
L 302.41603 214.740889 
L 305.728831 215.279004 
L 309.041633 215.809593 
L 312.354434 216.332862 
L 315.667236 216.849013 
L 318.980037 217.358235 
L 322.292839 217.860712 
L 325.60564 218.35662 
L 328.918442 218.84613 
L 332.231243 219.329404 
L 335.544045 219.806598 
L 338.856846 220.277865 
L 342.169647 220.743348 
L 345.482449 221.20319 
L 348.79525 221.657524 
L 352.108052 222.106482 
L 355.420853 222.550188 
L 358.733655 222.988765 
L 362.046456 223.422329 
L 365.359258 223.850994 
L 368.672059 224.27487 
L 371.984861 224.694062 
L 375.297662 225.108672 
L 378.610464 225.5188 
L 381.923265 225.924541 
L 385.236067 226.325989 
L 388.548868 226.723233 
L 391.86167 227.116361 
L 395.174471 227.505456 
L 398.487273 227.890601 
" clip-path="url(#pcec08de218)" style="fill: none; stroke: #2ca02c; stroke-width: 1.5; stroke-linecap: square"/>
   </g>
   <g id="line2d_76">
    <path d="M 73.832727 89.553013 
L 77.145529 115.848566 
L 80.45833 131.230479 
L 83.771132 142.144119 
L 87.083933 150.609397 
L 90.396735 157.526032 
L 93.709536 163.373964 
L 97.022338 168.439673 
L 100.335139 172.907945 
L 103.647941 176.90495 
L 106.960742 180.520682 
L 110.273544 183.821586 
L 113.586345 186.858123 
L 116.899147 189.669517 
L 120.211948 192.286863 
L 123.52475 194.735226 
L 126.837551 197.03511 
L 130.150353 199.203498 
L 133.463154 201.254617 
L 136.775955 203.200504 
L 140.088757 205.05143 
L 143.401558 206.816235 
L 146.71436 208.502578 
L 150.027161 210.117139 
L 153.339963 211.665781 
L 156.652764 213.153676 
L 159.965566 214.585411 
L 163.278367 215.965071 
L 166.591169 217.296311 
L 169.90397 218.582416 
L 173.216772 219.826346 
L 176.529573 221.03078 
L 179.842375 222.198148 
L 183.155176 223.330664 
L 186.467978 224.430348 
L 189.780779 225.499052 
L 193.093581 226.538472 
L 196.406382 227.550171 
L 199.719184 228.535589 
L 203.031985 229.496057 
L 206.344787 230.432808 
L 209.657588 231.346983 
L 212.97039 232.239647 
L 216.283191 233.111788 
L 219.595993 233.964329 
L 222.908794 234.798131 
L 226.221596 235.614 
L 229.534397 236.412692 
L 232.847199 237.194915 
L 236.16 237.961335 
L 239.472801 238.712576 
L 242.785603 239.44923 
L 246.098404 240.171851 
L 249.411206 240.880964 
L 252.724007 241.577066 
L 256.036809 242.260624 
L 259.34961 242.932084 
L 262.662412 243.591865 
L 265.975213 244.240367 
L 269.288015 244.87797 
L 272.600816 245.505033 
L 275.913618 246.1219 
L 279.226419 246.728896 
L 282.539221 247.326333 
L 285.852022 247.914507 
L 289.164824 248.493701 
L 292.477625 249.064185 
L 295.790427 249.626217 
L 299.103228 250.180044 
L 302.41603 250.725902 
L 305.728831 251.264017 
L 309.041633 251.794605 
L 312.354434 252.317875 
L 315.667236 252.834025 
L 318.980037 253.343247 
L 322.292839 253.845724 
L 325.60564 254.341633 
L 328.918442 254.831142 
L 332.231243 255.314416 
L 335.544045 255.791611 
L 338.856846 256.262877 
L 342.169647 256.728361 
L 345.482449 257.188203 
L 348.79525 257.642537 
L 352.108052 258.091494 
L 355.420853 258.535201 
L 358.733655 258.973778 
L 362.046456 259.407342 
L 365.359258 259.836007 
L 368.672059 260.259883 
L 371.984861 260.679074 
L 375.297662 261.093685 
L 378.610464 261.503812 
L 381.923265 261.909554 
L 385.236067 262.311002 
L 388.548868 262.708246 
L 391.86167 263.101373 
L 395.174471 263.490469 
L 398.487273 263.875614 
" clip-path="url(#pcec08de218)" style="fill: none; stroke: #d62728; stroke-width: 1.5; stroke-linecap: square"/>
   </g>
   <g id="patch_3">
    <path d="M 57.6 307.584 
L 57.6 41.472 
" style="fill: none; stroke: #000000; stroke-width: 0.8; stroke-linejoin: miter; stroke-linecap: square"/>
   </g>
   <g id="patch_4">
    <path d="M 414.72 307.584 
L 414.72 41.472 
" style="fill: none; stroke: #000000; stroke-width: 0.8; stroke-linejoin: miter; stroke-linecap: square"/>
   </g>
   <g id="patch_5">
    <path d="M 57.6 307.584 
L 414.72 307.584 
" style="fill: none; stroke: #000000; stroke-width: 0.8; stroke-linejoin: miter; stroke-linecap: square"/>
   </g>
   <g id="patch_6">
    <path d="M 57.6 41.472 
L 414.72 41.472 
" style="fill: none; stroke: #000000; stroke-width: 0.8; stroke-linejoin: miter; stroke-linecap: square"/>
   </g>
   <g id="legend_1">
    <g id="patch_7">
     <path d="M 210.92 113.572 
L 407.72 113.572 
Q 409.72 113.572 409.72 111.572 
L 409.72 48.472 
Q 409.72 46.472 407.72 46.472 
L 210.92 46.472 
Q 208.92 46.472 208.92 48.472 
L 208.92 111.572 
Q 208.92 113.572 210.92 113.572 
z
" style="fill: #ffffff; opacity: 0.8; stroke: #cccccc; stroke-linejoin: miter"/>
    </g>
    <g id="line2d_77">
     <path d="M 212.92 55.392313 
L 222.92 55.392313 
L 232.92 55.392313 
" style="fill: none; stroke: #1f77b4; stroke-width: 1.5; stroke-linecap: square"/>
    </g>
    <g id="text_15">
     <!-- Pile sleeve (170$m^3$) -->
     <g transform="translate(240.92 58.892313) scale(0.1 -0.1)">
      <defs>
       <path id="DejaVuSans-50" d="M 1259 4147 
L 1259 2394 
L 2053 2394 
Q 2494 2394 2734 2622 
Q 2975 2850 2975 3272 
Q 2975 3691 2734 3919 
Q 2494 4147 2053 4147 
L 1259 4147 
z
M 628 4666 
L 2053 4666 
Q 2838 4666 3239 4311 
Q 3641 3956 3641 3272 
Q 3641 2581 3239 2228 
Q 2838 1875 2053 1875 
L 1259 1875 
L 1259 0 
L 628 0 
L 628 4666 
z
" transform="scale(0.015625)"/>
       <path id="DejaVuSans-73" d="M 2834 3397 
L 2834 2853 
Q 2591 2978 2328 3040 
Q 2066 3103 1784 3103 
Q 1356 3103 1142 2972 
Q 928 2841 928 2578 
Q 928 2378 1081 2264 
Q 1234 2150 1697 2047 
L 1894 2003 
Q 2506 1872 2764 1633 
Q 3022 1394 3022 966 
Q 3022 478 2636 193 
Q 2250 -91 1575 -91 
Q 1294 -91 989 -36 
Q 684 19 347 128 
L 347 722 
Q 666 556 975 473 
Q 1284 391 1588 391 
Q 1994 391 2212 530 
Q 2431 669 2431 922 
Q 2431 1156 2273 1281 
Q 2116 1406 1581 1522 
L 1381 1569 
Q 847 1681 609 1914 
Q 372 2147 372 2553 
Q 372 3047 722 3315 
Q 1072 3584 1716 3584 
Q 2034 3584 2315 3537 
Q 2597 3491 2834 3397 
z
" transform="scale(0.015625)"/>
       <path id="DejaVuSans-76" d="M 191 3500 
L 800 3500 
L 1894 563 
L 2988 3500 
L 3597 3500 
L 2284 0 
L 1503 0 
L 191 3500 
z
" transform="scale(0.015625)"/>
       <path id="DejaVuSans-37" d="M 525 4666 
L 3525 4666 
L 3525 4397 
L 1831 0 
L 1172 0 
L 2766 4134 
L 525 4134 
L 525 4666 
z
" transform="scale(0.015625)"/>
       <path id="DejaVuSans-Oblique-6d" d="M 5747 2113 
L 5338 0 
L 4763 0 
L 5166 2094 
Q 5191 2228 5203 2325 
Q 5216 2422 5216 2491 
Q 5216 2772 5059 2928 
Q 4903 3084 4622 3084 
Q 4203 3084 3875 2770 
Q 3547 2456 3450 1953 
L 3066 0 
L 2491 0 
L 2900 2094 
Q 2925 2209 2937 2307 
Q 2950 2406 2950 2484 
Q 2950 2769 2794 2926 
Q 2638 3084 2363 3084 
Q 1938 3084 1609 2770 
Q 1281 2456 1184 1953 
L 800 0 
L 225 0 
L 909 3500 
L 1484 3500 
L 1375 2956 
Q 1609 3263 1923 3423 
Q 2238 3584 2597 3584 
Q 2978 3584 3223 3384 
Q 3469 3184 3519 2828 
Q 3781 3197 4126 3390 
Q 4472 3584 4856 3584 
Q 5306 3584 5551 3325 
Q 5797 3066 5797 2591 
Q 5797 2488 5784 2364 
Q 5772 2241 5747 2113 
z
" transform="scale(0.015625)"/>
      </defs>
      <use xlink:href="#DejaVuSans-50" transform="translate(0 0.765625)"/>
      <use xlink:href="#DejaVuSans-69" transform="translate(60.302734 0.765625)"/>
      <use xlink:href="#DejaVuSans-6c" transform="translate(88.085938 0.765625)"/>
      <use xlink:href="#DejaVuSans-65" transform="translate(115.869141 0.765625)"/>
      <use xlink:href="#DejaVuSans-20" transform="translate(177.392578 0.765625)"/>
      <use xlink:href="#DejaVuSans-73" transform="translate(209.179688 0.765625)"/>
      <use xlink:href="#DejaVuSans-6c" transform="translate(261.279297 0.765625)"/>
      <use xlink:href="#DejaVuSans-65" transform="translate(289.0625 0.765625)"/>
      <use xlink:href="#DejaVuSans-65" transform="translate(350.585938 0.765625)"/>
      <use xlink:href="#DejaVuSans-76" transform="translate(412.109375 0.765625)"/>
      <use xlink:href="#DejaVuSans-65" transform="translate(471.289062 0.765625)"/>
      <use xlink:href="#DejaVuSans-20" transform="translate(532.8125 0.765625)"/>
      <use xlink:href="#DejaVuSans-28" transform="translate(564.599609 0.765625)"/>
      <use xlink:href="#DejaVuSans-31" transform="translate(603.613281 0.765625)"/>
      <use xlink:href="#DejaVuSans-37" transform="translate(667.236328 0.765625)"/>
      <use xlink:href="#DejaVuSans-30" transform="translate(730.859375 0.765625)"/>
      <use xlink:href="#DejaVuSans-Oblique-6d" transform="translate(794.482422 0.765625)"/>
      <use xlink:href="#DejaVuSans-33" transform="translate(896.544427 39.046875) scale(0.7)"/>
      <use xlink:href="#DejaVuSans-29" transform="translate(943.814935 0.765625)"/>
     </g>
    </g>
    <g id="line2d_78">
     <path d="M 212.92 71.572 
L 222.92 71.572 
L 232.92 71.572 
" style="fill: none; stroke: #ff7f0e; stroke-width: 1.5; stroke-linecap: square"/>
    </g>
    <g id="text_16">
     <!-- Lower leg compartment (190$m^3$) -->
     <g transform="translate(240.92 75.072) scale(0.1 -0.1)">
      <defs>
       <path id="DejaVuSans-4c" d="M 628 4666 
L 1259 4666 
L 1259 531 
L 3531 531 
L 3531 0 
L 628 0 
L 628 4666 
z
" transform="scale(0.015625)"/>
       <path id="DejaVuSans-77" d="M 269 3500 
L 844 3500 
L 1563 769 
L 2278 3500 
L 2956 3500 
L 3675 769 
L 4391 3500 
L 4966 3500 
L 4050 0 
L 3372 0 
L 2619 2869 
L 1863 0 
L 1184 0 
L 269 3500 
z
" transform="scale(0.015625)"/>
       <path id="DejaVuSans-67" d="M 2906 1791 
Q 2906 2416 2648 2759 
Q 2391 3103 1925 3103 
Q 1463 3103 1205 2759 
Q 947 2416 947 1791 
Q 947 1169 1205 825 
Q 1463 481 1925 481 
Q 2391 481 2648 825 
Q 2906 1169 2906 1791 
z
M 3481 434 
Q 3481 -459 3084 -895 
Q 2688 -1331 1869 -1331 
Q 1566 -1331 1297 -1286 
Q 1028 -1241 775 -1147 
L 775 -588 
Q 1028 -725 1275 -790 
Q 1522 -856 1778 -856 
Q 2344 -856 2625 -561 
Q 2906 -266 2906 331 
L 2906 616 
Q 2728 306 2450 153 
Q 2172 0 1784 0 
Q 1141 0 747 490 
Q 353 981 353 1791 
Q 353 2603 747 3093 
Q 1141 3584 1784 3584 
Q 2172 3584 2450 3431 
Q 2728 3278 2906 2969 
L 2906 3500 
L 3481 3500 
L 3481 434 
z
" transform="scale(0.015625)"/>
       <path id="DejaVuSans-63" d="M 3122 3366 
L 3122 2828 
Q 2878 2963 2633 3030 
Q 2388 3097 2138 3097 
Q 1578 3097 1268 2742 
Q 959 2388 959 1747 
Q 959 1106 1268 751 
Q 1578 397 2138 397 
Q 2388 397 2633 464 
Q 2878 531 3122 666 
L 3122 134 
Q 2881 22 2623 -34 
Q 2366 -91 2075 -91 
Q 1284 -91 818 406 
Q 353 903 353 1747 
Q 353 2603 823 3093 
Q 1294 3584 2113 3584 
Q 2378 3584 2631 3529 
Q 2884 3475 3122 3366 
z
" transform="scale(0.015625)"/>
       <path id="DejaVuSans-70" d="M 1159 525 
L 1159 -1331 
L 581 -1331 
L 581 3500 
L 1159 3500 
L 1159 2969 
Q 1341 3281 1617 3432 
Q 1894 3584 2278 3584 
Q 2916 3584 3314 3078 
Q 3713 2572 3713 1747 
Q 3713 922 3314 415 
Q 2916 -91 2278 -91 
Q 1894 -91 1617 61 
Q 1341 213 1159 525 
z
M 3116 1747 
Q 3116 2381 2855 2742 
Q 2594 3103 2138 3103 
Q 1681 3103 1420 2742 
Q 1159 2381 1159 1747 
Q 1159 1113 1420 752 
Q 1681 391 2138 391 
Q 2594 391 2855 752 
Q 3116 1113 3116 1747 
z
" transform="scale(0.015625)"/>
       <path id="DejaVuSans-39" d="M 703 97 
L 703 672 
Q 941 559 1184 500 
Q 1428 441 1663 441 
Q 2288 441 2617 861 
Q 2947 1281 2994 2138 
Q 2813 1869 2534 1725 
Q 2256 1581 1919 1581 
Q 1219 1581 811 2004 
Q 403 2428 403 3163 
Q 403 3881 828 4315 
Q 1253 4750 1959 4750 
Q 2769 4750 3195 4129 
Q 3622 3509 3622 2328 
Q 3622 1225 3098 567 
Q 2575 -91 1691 -91 
Q 1453 -91 1209 -44 
Q 966 3 703 97 
z
M 1959 2075 
Q 2384 2075 2632 2365 
Q 2881 2656 2881 3163 
Q 2881 3666 2632 3958 
Q 2384 4250 1959 4250 
Q 1534 4250 1286 3958 
Q 1038 3666 1038 3163 
Q 1038 2656 1286 2365 
Q 1534 2075 1959 2075 
z
" transform="scale(0.015625)"/>
      </defs>
      <use xlink:href="#DejaVuSans-4c" transform="translate(0 0.765625)"/>
      <use xlink:href="#DejaVuSans-6f" transform="translate(55.712891 0.765625)"/>
      <use xlink:href="#DejaVuSans-77" transform="translate(116.894531 0.765625)"/>
      <use xlink:href="#DejaVuSans-65" transform="translate(198.681641 0.765625)"/>
      <use xlink:href="#DejaVuSans-72" transform="translate(260.205078 0.765625)"/>
      <use xlink:href="#DejaVuSans-20" transform="translate(301.318359 0.765625)"/>
      <use xlink:href="#DejaVuSans-6c" transform="translate(333.105469 0.765625)"/>
      <use xlink:href="#DejaVuSans-65" transform="translate(360.888672 0.765625)"/>
      <use xlink:href="#DejaVuSans-67" transform="translate(422.412109 0.765625)"/>
      <use xlink:href="#DejaVuSans-20" transform="translate(485.888672 0.765625)"/>
      <use xlink:href="#DejaVuSans-63" transform="translate(517.675781 0.765625)"/>
      <use xlink:href="#DejaVuSans-6f" transform="translate(572.65625 0.765625)"/>
      <use xlink:href="#DejaVuSans-6d" transform="translate(633.837891 0.765625)"/>
      <use xlink:href="#DejaVuSans-70" transform="translate(731.25 0.765625)"/>
      <use xlink:href="#DejaVuSans-61" transform="translate(794.726562 0.765625)"/>
      <use xlink:href="#DejaVuSans-72" transform="translate(856.005859 0.765625)"/>
      <use xlink:href="#DejaVuSans-74" transform="translate(897.119141 0.765625)"/>
      <use xlink:href="#DejaVuSans-6d" transform="translate(936.328125 0.765625)"/>
      <use xlink:href="#DejaVuSans-65" transform="translate(1033.740234 0.765625)"/>
      <use xlink:href="#DejaVuSans-6e" transform="translate(1095.263672 0.765625)"/>
      <use xlink:href="#DejaVuSans-74" transform="translate(1158.642578 0.765625)"/>
      <use xlink:href="#DejaVuSans-20" transform="translate(1197.851562 0.765625)"/>
      <use xlink:href="#DejaVuSans-28" transform="translate(1229.638672 0.765625)"/>
      <use xlink:href="#DejaVuSans-31" transform="translate(1268.652344 0.765625)"/>
      <use xlink:href="#DejaVuSans-39" transform="translate(1332.275391 0.765625)"/>
      <use xlink:href="#DejaVuSans-30" transform="translate(1395.898438 0.765625)"/>
      <use xlink:href="#DejaVuSans-Oblique-6d" transform="translate(1459.521484 0.765625)"/>
      <use xlink:href="#DejaVuSans-33" transform="translate(1561.58349 39.046875) scale(0.7)"/>
      <use xlink:href="#DejaVuSans-29" transform="translate(1608.853997 0.765625)"/>
     </g>
    </g>
    <g id="line2d_79">
     <path d="M 212.92 87.772 
L 222.92 87.772 
L 232.92 87.772 
" style="fill: none; stroke: #2ca02c; stroke-width: 1.5; stroke-linecap: square"/>
    </g>
    <g id="text_17">
     <!-- Buoyancy tank (6000$m^3$) -->
     <g transform="translate(240.92 91.272) scale(0.1 -0.1)">
      <defs>
       <path id="DejaVuSans-42" d="M 1259 2228 
L 1259 519 
L 2272 519 
Q 2781 519 3026 730 
Q 3272 941 3272 1375 
Q 3272 1813 3026 2020 
Q 2781 2228 2272 2228 
L 1259 2228 
z
M 1259 4147 
L 1259 2741 
L 2194 2741 
Q 2656 2741 2882 2914 
Q 3109 3088 3109 3444 
Q 3109 3797 2882 3972 
Q 2656 4147 2194 4147 
L 1259 4147 
z
M 628 4666 
L 2241 4666 
Q 2963 4666 3353 4366 
Q 3744 4066 3744 3513 
Q 3744 3084 3544 2831 
Q 3344 2578 2956 2516 
Q 3422 2416 3680 2098 
Q 3938 1781 3938 1306 
Q 3938 681 3513 340 
Q 3088 0 2303 0 
L 628 0 
L 628 4666 
z
" transform="scale(0.015625)"/>
       <path id="DejaVuSans-79" d="M 2059 -325 
Q 1816 -950 1584 -1140 
Q 1353 -1331 966 -1331 
L 506 -1331 
L 506 -850 
L 844 -850 
Q 1081 -850 1212 -737 
Q 1344 -625 1503 -206 
L 1606 56 
L 191 3500 
L 800 3500 
L 1894 763 
L 2988 3500 
L 3597 3500 
L 2059 -325 
z
" transform="scale(0.015625)"/>
      </defs>
      <use xlink:href="#DejaVuSans-42" transform="translate(0 0.765625)"/>
      <use xlink:href="#DejaVuSans-75" transform="translate(68.603516 0.765625)"/>
      <use xlink:href="#DejaVuSans-6f" transform="translate(131.982422 0.765625)"/>
      <use xlink:href="#DejaVuSans-79" transform="translate(193.164062 0.765625)"/>
      <use xlink:href="#DejaVuSans-61" transform="translate(252.34375 0.765625)"/>
      <use xlink:href="#DejaVuSans-6e" transform="translate(313.623047 0.765625)"/>
      <use xlink:href="#DejaVuSans-63" transform="translate(377.001953 0.765625)"/>
      <use xlink:href="#DejaVuSans-79" transform="translate(431.982422 0.765625)"/>
      <use xlink:href="#DejaVuSans-20" transform="translate(491.162109 0.765625)"/>
      <use xlink:href="#DejaVuSans-74" transform="translate(522.949219 0.765625)"/>
      <use xlink:href="#DejaVuSans-61" transform="translate(562.158203 0.765625)"/>
      <use xlink:href="#DejaVuSans-6e" transform="translate(623.4375 0.765625)"/>
      <use xlink:href="#DejaVuSans-6b" transform="translate(686.816406 0.765625)"/>
      <use xlink:href="#DejaVuSans-20" transform="translate(744.726562 0.765625)"/>
      <use xlink:href="#DejaVuSans-28" transform="translate(776.513672 0.765625)"/>
      <use xlink:href="#DejaVuSans-36" transform="translate(815.527344 0.765625)"/>
      <use xlink:href="#DejaVuSans-30" transform="translate(879.150391 0.765625)"/>
      <use xlink:href="#DejaVuSans-30" transform="translate(942.773438 0.765625)"/>
      <use xlink:href="#DejaVuSans-30" transform="translate(1006.396484 0.765625)"/>
      <use xlink:href="#DejaVuSans-Oblique-6d" transform="translate(1070.019531 0.765625)"/>
      <use xlink:href="#DejaVuSans-33" transform="translate(1172.081536 39.046875) scale(0.7)"/>
      <use xlink:href="#DejaVuSans-29" transform="translate(1219.352044 0.765625)"/>
     </g>
    </g>
    <g id="line2d_80">
     <path d="M 212.92 103.972 
L 222.92 103.972 
L 232.92 103.972 
" style="fill: none; stroke: #d62728; stroke-width: 1.5; stroke-linecap: square"/>
    </g>
    <g id="text_18">
     <!-- Outer leg - - full (900$m^3$) -->
     <g transform="translate(240.92 107.472) scale(0.1 -0.1)">
      <defs>
       <path id="DejaVuSans-4f" d="M 2522 4238 
Q 1834 4238 1429 3725 
Q 1025 3213 1025 2328 
Q 1025 1447 1429 934 
Q 1834 422 2522 422 
Q 3209 422 3611 934 
Q 4013 1447 4013 2328 
Q 4013 3213 3611 3725 
Q 3209 4238 2522 4238 
z
M 2522 4750 
Q 3503 4750 4090 4092 
Q 4678 3434 4678 2328 
Q 4678 1225 4090 567 
Q 3503 -91 2522 -91 
Q 1538 -91 948 565 
Q 359 1222 359 2328 
Q 359 3434 948 4092 
Q 1538 4750 2522 4750 
z
" transform="scale(0.015625)"/>
       <path id="DejaVuSans-2d" d="M 313 2009 
L 1997 2009 
L 1997 1497 
L 313 1497 
L 313 2009 
z
" transform="scale(0.015625)"/>
      </defs>
      <use xlink:href="#DejaVuSans-4f" transform="translate(0 0.765625)"/>
      <use xlink:href="#DejaVuSans-75" transform="translate(78.710938 0.765625)"/>
      <use xlink:href="#DejaVuSans-74" transform="translate(142.089844 0.765625)"/>
      <use xlink:href="#DejaVuSans-65" transform="translate(181.298828 0.765625)"/>
      <use xlink:href="#DejaVuSans-72" transform="translate(242.822266 0.765625)"/>
      <use xlink:href="#DejaVuSans-20" transform="translate(283.935547 0.765625)"/>
      <use xlink:href="#DejaVuSans-6c" transform="translate(315.722656 0.765625)"/>
      <use xlink:href="#DejaVuSans-65" transform="translate(343.505859 0.765625)"/>
      <use xlink:href="#DejaVuSans-67" transform="translate(405.029297 0.765625)"/>
      <use xlink:href="#DejaVuSans-20" transform="translate(468.505859 0.765625)"/>
      <use xlink:href="#DejaVuSans-2d" transform="translate(500.292969 0.765625)"/>
      <use xlink:href="#DejaVuSans-2d" transform="translate(536.376953 0.765625)"/>
      <use xlink:href="#DejaVuSans-20" transform="translate(572.460938 0.765625)"/>
      <use xlink:href="#DejaVuSans-66" transform="translate(604.248047 0.765625)"/>
      <use xlink:href="#DejaVuSans-75" transform="translate(639.453125 0.765625)"/>
      <use xlink:href="#DejaVuSans-6c" transform="translate(702.832031 0.765625)"/>
      <use xlink:href="#DejaVuSans-6c" transform="translate(730.615234 0.765625)"/>
      <use xlink:href="#DejaVuSans-20" transform="translate(758.398438 0.765625)"/>
      <use xlink:href="#DejaVuSans-28" transform="translate(790.185547 0.765625)"/>
      <use xlink:href="#DejaVuSans-39" transform="translate(829.199219 0.765625)"/>
      <use xlink:href="#DejaVuSans-30" transform="translate(892.822266 0.765625)"/>
      <use xlink:href="#DejaVuSans-30" transform="translate(956.445312 0.765625)"/>
      <use xlink:href="#DejaVuSans-Oblique-6d" transform="translate(1020.068359 0.765625)"/>
      <use xlink:href="#DejaVuSans-33" transform="translate(1122.130365 39.046875) scale(0.7)"/>
      <use xlink:href="#DejaVuSans-29" transform="translate(1169.400872 0.765625)"/>
     </g>
    </g>
   </g>
  </g>
 </g>
 <defs>
  <clipPath id="pcec08de218">
   <rect x="57.6" y="41.472" width="357.12" height="266.112"/>
  </clipPath>
 </defs>
</svg>
