<?xml version="1.0" encoding="utf-8" standalone="no"?>
<!DOCTYPE svg PUBLIC "-//W3C//DTD SVG 1.1//EN"
  "http://www.w3.org/Graphics/SVG/1.1/DTD/svg11.dtd">
<svg xmlns:xlink="http://www.w3.org/1999/xlink" width="460.8pt" height="345.6pt" viewBox="0 0 460.8 345.6" xmlns="http://www.w3.org/2000/svg" version="1.1">
 <metadata>
  <rdf:RDF xmlns:dc="http://purl.org/dc/elements/1.1/" xmlns:cc="http://creativecommons.org/ns#" xmlns:rdf="http://www.w3.org/1999/02/22-rdf-syntax-ns#">
   <cc:Work>
    <dc:type rdf:resource="http://purl.org/dc/dcmitype/StillImage"/>
    <dc:date>2026-03-23T16:53:01.497562</dc:date>
    <dc:format>image/svg+xml</dc:format>
    <dc:creator>
     <cc:Agent>
      <dc:title>Matplotlib v3.10.8, https://matplotlib.org/</dc:title>
     </cc:Agent>
    </dc:creator>
   </cc:Work>
  </rdf:RDF>
 </metadata>
 <defs>
  <style type="text/css">*{stroke-linejoin: round; stroke-linecap: butt}</style>
 </defs>
 <g id="figure_1">
  <g id="patch_1">
   <path d="M 0 345.6 
L 460.8 345.6 
L 460.8 0 
L 0 0 
L 0 345.6 
z
" style="fill: none"/>
  </g>
  <g id="axes_1">
   <g id="patch_2">
    <path d="M 57.6 307.584 
L 414.72 307.584 
L 414.72 41.472 
L 57.6 41.472 
L 57.6 307.584 
z
" style="fill: none"/>
   </g>
   <g id="patch_3">
    <path d="M 57.6 247.104214 
L 414.72 247.104214 
L 414.72 77.760027 
L 57.6 77.760027 
z
" clip-path="url(#p026a1f8c42)" style="fill: #ff0000; opacity: 0.18"/>
   </g>
   <g id="patch_4">
    <path d="M 57.6 150.336107 
L 414.72 150.336107 
L 414.72 53.568 
L 57.6 53.568 
z
" clip-path="url(#p026a1f8c42)" style="fill: #ffa500; opacity: 0.18"/>
   </g>
   <g id="matplotlib.axis_1">
    <g id="xtick_1">
     <g id="line2d_1">
      <path d="M 73.017012 307.584 
L 73.017012 41.472 
" clip-path="url(#p026a1f8c42)" style="fill: none; stroke: #b0b0b0; stroke-width: 0.8; stroke-linecap: square"/>
     </g>
     <g id="line2d_2">
      <defs>
       <path id="m3a31807765" d="M 0 0 
L 0 3.5 
" style="stroke: #000000; stroke-width: 0.8"/>
      </defs>
      <g>
       <use xlink:href="#m3a31807765" x="73.017012" y="307.584" style="stroke: #000000; stroke-width: 0.8"/>
      </g>
     </g>
     <g id="text_1">
      <!-- 0 -->
      <g transform="translate(69.835762 322.182437) scale(0.1 -0.1)">
       <defs>
        <path id="DejaVuSans-30" d="M 2034 4250 
Q 1547 4250 1301 3770 
Q 1056 3291 1056 2328 
Q 1056 1369 1301 889 
Q 1547 409 2034 409 
Q 2525 409 2770 889 
Q 3016 1369 3016 2328 
Q 3016 3291 2770 3770 
Q 2525 4250 2034 4250 
z
M 2034 4750 
Q 2819 4750 3233 4129 
Q 3647 3509 3647 2328 
Q 3647 1150 3233 529 
Q 2819 -91 2034 -91 
Q 1250 -91 836 529 
Q 422 1150 422 2328 
Q 422 3509 836 4129 
Q 1250 4750 2034 4750 
z
" transform="scale(0.015625)"/>
       </defs>
       <use xlink:href="#DejaVuSans-30"/>
      </g>
     </g>
    </g>
    <g id="xtick_2">
     <g id="line2d_3">
      <path d="M 113.802759 307.584 
L 113.802759 41.472 
" clip-path="url(#p026a1f8c42)" style="fill: none; stroke: #b0b0b0; stroke-width: 0.8; stroke-linecap: square"/>
     </g>
     <g id="line2d_4">
      <g>
       <use xlink:href="#m3a31807765" x="113.802759" y="307.584" style="stroke: #000000; stroke-width: 0.8"/>
      </g>
     </g>
     <g id="text_2">
      <!-- 5 -->
      <g transform="translate(110.621509 322.182437) scale(0.1 -0.1)">
       <defs>
        <path id="DejaVuSans-35" d="M 691 4666 
L 3169 4666 
L 3169 4134 
L 1269 4134 
L 1269 2991 
Q 1406 3038 1543 3061 
Q 1681 3084 1819 3084 
Q 2600 3084 3056 2656 
Q 3513 2228 3513 1497 
Q 3513 744 3044 326 
Q 2575 -91 1722 -91 
Q 1428 -91 1123 -41 
Q 819 9 494 109 
L 494 744 
Q 775 591 1075 516 
Q 1375 441 1709 441 
Q 2250 441 2565 725 
Q 2881 1009 2881 1497 
Q 2881 1984 2565 2268 
Q 2250 2553 1709 2553 
Q 1456 2553 1204 2497 
Q 953 2441 691 2322 
L 691 4666 
z
" transform="scale(0.015625)"/>
       </defs>
       <use xlink:href="#DejaVuSans-35"/>
      </g>
     </g>
    </g>
    <g id="xtick_3">
     <g id="line2d_5">
      <path d="M 154.588506 307.584 
L 154.588506 41.472 
" clip-path="url(#p026a1f8c42)" style="fill: none; stroke: #b0b0b0; stroke-width: 0.8; stroke-linecap: square"/>
     </g>
     <g id="line2d_6">
      <g>
       <use xlink:href="#m3a31807765" x="154.588506" y="307.584" style="stroke: #000000; stroke-width: 0.8"/>
      </g>
     </g>
     <g id="text_3">
      <!-- 10 -->
      <g transform="translate(148.226006 322.182437) scale(0.1 -0.1)">
       <defs>
        <path id="DejaVuSans-31" d="M 794 531 
L 1825 531 
L 1825 4091 
L 703 3866 
L 703 4441 
L 1819 4666 
L 2450 4666 
L 2450 531 
L 3481 531 
L 3481 0 
L 794 0 
L 794 531 
z
" transform="scale(0.015625)"/>
       </defs>
       <use xlink:href="#DejaVuSans-31"/>
       <use xlink:href="#DejaVuSans-30" transform="translate(63.623047 0)"/>
      </g>
     </g>
    </g>
    <g id="xtick_4">
     <g id="line2d_7">
      <path d="M 195.374253 307.584 
L 195.374253 41.472 
" clip-path="url(#p026a1f8c42)" style="fill: none; stroke: #b0b0b0; stroke-width: 0.8; stroke-linecap: square"/>
     </g>
     <g id="line2d_8">
      <g>
       <use xlink:href="#m3a31807765" x="195.374253" y="307.584" style="stroke: #000000; stroke-width: 0.8"/>
      </g>
     </g>
     <g id="text_4">
      <!-- 15 -->
      <g transform="translate(189.011753 322.182437) scale(0.1 -0.1)">
       <use xlink:href="#DejaVuSans-31"/>
       <use xlink:href="#DejaVuSans-35" transform="translate(63.623047 0)"/>
      </g>
     </g>
    </g>
    <g id="xtick_5">
     <g id="line2d_9">
      <path d="M 236.16 307.584 
L 236.16 41.472 
" clip-path="url(#p026a1f8c42)" style="fill: none; stroke: #b0b0b0; stroke-width: 0.8; stroke-linecap: square"/>
     </g>
     <g id="line2d_10">
      <g>
       <use xlink:href="#m3a31807765" x="236.16" y="307.584" style="stroke: #000000; stroke-width: 0.8"/>
      </g>
     </g>
     <g id="text_5">
      <!-- 20 -->
      <g transform="translate(229.7975 322.182437) scale(0.1 -0.1)">
       <defs>
        <path id="DejaVuSans-32" d="M 1228 531 
L 3431 531 
L 3431 0 
L 469 0 
L 469 531 
Q 828 903 1448 1529 
Q 2069 2156 2228 2338 
Q 2531 2678 2651 2914 
Q 2772 3150 2772 3378 
Q 2772 3750 2511 3984 
Q 2250 4219 1831 4219 
Q 1534 4219 1204 4116 
Q 875 4013 500 3803 
L 500 4441 
Q 881 4594 1212 4672 
Q 1544 4750 1819 4750 
Q 2544 4750 2975 4387 
Q 3406 4025 3406 3419 
Q 3406 3131 3298 2873 
Q 3191 2616 2906 2266 
Q 2828 2175 2409 1742 
Q 1991 1309 1228 531 
z
" transform="scale(0.015625)"/>
       </defs>
       <use xlink:href="#DejaVuSans-32"/>
       <use xlink:href="#DejaVuSans-30" transform="translate(63.623047 0)"/>
      </g>
     </g>
    </g>
    <g id="xtick_6">
     <g id="line2d_11">
      <path d="M 276.945747 307.584 
L 276.945747 41.472 
" clip-path="url(#p026a1f8c42)" style="fill: none; stroke: #b0b0b0; stroke-width: 0.8; stroke-linecap: square"/>
     </g>
     <g id="line2d_12">
      <g>
       <use xlink:href="#m3a31807765" x="276.945747" y="307.584" style="stroke: #000000; stroke-width: 0.8"/>
      </g>
     </g>
     <g id="text_6">
      <!-- 25 -->
      <g transform="translate(270.583247 322.182437) scale(0.1 -0.1)">
       <use xlink:href="#DejaVuSans-32"/>
       <use xlink:href="#DejaVuSans-35" transform="translate(63.623047 0)"/>
      </g>
     </g>
    </g>
    <g id="xtick_7">
     <g id="line2d_13">
      <path d="M 317.731494 307.584 
L 317.731494 41.472 
" clip-path="url(#p026a1f8c42)" style="fill: none; stroke: #b0b0b0; stroke-width: 0.8; stroke-linecap: square"/>
     </g>
     <g id="line2d_14">
      <g>
       <use xlink:href="#m3a31807765" x="317.731494" y="307.584" style="stroke: #000000; stroke-width: 0.8"/>
      </g>
     </g>
     <g id="text_7">
      <!-- 30 -->
      <g transform="translate(311.368994 322.182437) scale(0.1 -0.1)">
       <defs>
        <path id="DejaVuSans-33" d="M 2597 2516 
Q 3050 2419 3304 2112 
Q 3559 1806 3559 1356 
Q 3559 666 3084 287 
Q 2609 -91 1734 -91 
Q 1441 -91 1130 -33 
Q 819 25 488 141 
L 488 750 
Q 750 597 1062 519 
Q 1375 441 1716 441 
Q 2309 441 2620 675 
Q 2931 909 2931 1356 
Q 2931 1769 2642 2001 
Q 2353 2234 1838 2234 
L 1294 2234 
L 1294 2753 
L 1863 2753 
Q 2328 2753 2575 2939 
Q 2822 3125 2822 3475 
Q 2822 3834 2567 4026 
Q 2313 4219 1838 4219 
Q 1578 4219 1281 4162 
Q 984 4106 628 3988 
L 628 4550 
Q 988 4650 1302 4700 
Q 1616 4750 1894 4750 
Q 2613 4750 3031 4423 
Q 3450 4097 3450 3541 
Q 3450 3153 3228 2886 
Q 3006 2619 2597 2516 
z
" transform="scale(0.015625)"/>
       </defs>
       <use xlink:href="#DejaVuSans-33"/>
       <use xlink:href="#DejaVuSans-30" transform="translate(63.623047 0)"/>
      </g>
     </g>
    </g>
    <g id="xtick_8">
     <g id="line2d_15">
      <path d="M 358.517241 307.584 
L 358.517241 41.472 
" clip-path="url(#p026a1f8c42)" style="fill: none; stroke: #b0b0b0; stroke-width: 0.8; stroke-linecap: square"/>
     </g>
     <g id="line2d_16">
      <g>
       <use xlink:href="#m3a31807765" x="358.517241" y="307.584" style="stroke: #000000; stroke-width: 0.8"/>
      </g>
     </g>
     <g id="text_8">
      <!-- 35 -->
      <g transform="translate(352.154741 322.182437) scale(0.1 -0.1)">
       <use xlink:href="#DejaVuSans-33"/>
       <use xlink:href="#DejaVuSans-35" transform="translate(63.623047 0)"/>
      </g>
     </g>
    </g>
    <g id="xtick_9">
     <g id="line2d_17">
      <path d="M 399.302988 307.584 
L 399.302988 41.472 
" clip-path="url(#p026a1f8c42)" style="fill: none; stroke: #b0b0b0; stroke-width: 0.8; stroke-linecap: square"/>
     </g>
     <g id="line2d_18">
      <g>
       <use xlink:href="#m3a31807765" x="399.302988" y="307.584" style="stroke: #000000; stroke-width: 0.8"/>
      </g>
     </g>
     <g id="text_9">
      <!-- 40 -->
      <g transform="translate(392.940488 322.182437) scale(0.1 -0.1)">
       <defs>
        <path id="DejaVuSans-34" d="M 2419 4116 
L 825 1625 
L 2419 1625 
L 2419 4116 
z
M 2253 4666 
L 3047 4666 
L 3047 1625 
L 3713 1625 
L 3713 1100 
L 3047 1100 
L 3047 0 
L 2419 0 
L 2419 1100 
L 313 1100 
L 313 1709 
L 2253 4666 
z
" transform="scale(0.015625)"/>
       </defs>
       <use xlink:href="#DejaVuSans-34"/>
       <use xlink:href="#DejaVuSans-30" transform="translate(63.623047 0)"/>
      </g>
     </g>
    </g>
    <g id="text_10">
     <!-- Length of pipe, L (m) -->
     <g transform="translate(183.776406 335.860562) scale(0.1 -0.1)">
      <defs>
       <path id="DejaVuSans-4c" d="M 628 4666 
L 1259 4666 
L 1259 531 
L 3531 531 
L 3531 0 
L 628 0 
L 628 4666 
z
" transform="scale(0.015625)"/>
       <path id="DejaVuSans-65" d="M 3597 1894 
L 3597 1613 
L 953 1613 
Q 991 1019 1311 708 
Q 1631 397 2203 397 
Q 2534 397 2845 478 
Q 3156 559 3463 722 
L 3463 178 
Q 3153 47 2828 -22 
Q 2503 -91 2169 -91 
Q 1331 -91 842 396 
Q 353 884 353 1716 
Q 353 2575 817 3079 
Q 1281 3584 2069 3584 
Q 2775 3584 3186 3129 
Q 3597 2675 3597 1894 
z
M 3022 2063 
Q 3016 2534 2758 2815 
Q 2500 3097 2075 3097 
Q 1594 3097 1305 2825 
Q 1016 2553 972 2059 
L 3022 2063 
z
" transform="scale(0.015625)"/>
       <path id="DejaVuSans-6e" d="M 3513 2113 
L 3513 0 
L 2938 0 
L 2938 2094 
Q 2938 2591 2744 2837 
Q 2550 3084 2163 3084 
Q 1697 3084 1428 2787 
Q 1159 2491 1159 1978 
L 1159 0 
L 581 0 
L 581 3500 
L 1159 3500 
L 1159 2956 
Q 1366 3272 1645 3428 
Q 1925 3584 2291 3584 
Q 2894 3584 3203 3211 
Q 3513 2838 3513 2113 
z
" transform="scale(0.015625)"/>
       <path id="DejaVuSans-67" d="M 2906 1791 
Q 2906 2416 2648 2759 
Q 2391 3103 1925 3103 
Q 1463 3103 1205 2759 
Q 947 2416 947 1791 
Q 947 1169 1205 825 
Q 1463 481 1925 481 
Q 2391 481 2648 825 
Q 2906 1169 2906 1791 
z
M 3481 434 
Q 3481 -459 3084 -895 
Q 2688 -1331 1869 -1331 
Q 1566 -1331 1297 -1286 
Q 1028 -1241 775 -1147 
L 775 -588 
Q 1028 -725 1275 -790 
Q 1522 -856 1778 -856 
Q 2344 -856 2625 -561 
Q 2906 -266 2906 331 
L 2906 616 
Q 2728 306 2450 153 
Q 2172 0 1784 0 
Q 1141 0 747 490 
Q 353 981 353 1791 
Q 353 2603 747 3093 
Q 1141 3584 1784 3584 
Q 2172 3584 2450 3431 
Q 2728 3278 2906 2969 
L 2906 3500 
L 3481 3500 
L 3481 434 
z
" transform="scale(0.015625)"/>
       <path id="DejaVuSans-74" d="M 1172 4494 
L 1172 3500 
L 2356 3500 
L 2356 3053 
L 1172 3053 
L 1172 1153 
Q 1172 725 1289 603 
Q 1406 481 1766 481 
L 2356 481 
L 2356 0 
L 1766 0 
Q 1100 0 847 248 
Q 594 497 594 1153 
L 594 3053 
L 172 3053 
L 172 3500 
L 594 3500 
L 594 4494 
L 1172 4494 
z
" transform="scale(0.015625)"/>
       <path id="DejaVuSans-68" d="M 3513 2113 
L 3513 0 
L 2938 0 
L 2938 2094 
Q 2938 2591 2744 2837 
Q 2550 3084 2163 3084 
Q 1697 3084 1428 2787 
Q 1159 2491 1159 1978 
L 1159 0 
L 581 0 
L 581 4863 
L 1159 4863 
L 1159 2956 
Q 1366 3272 1645 3428 
Q 1925 3584 2291 3584 
Q 2894 3584 3203 3211 
Q 3513 2838 3513 2113 
z
" transform="scale(0.015625)"/>
       <path id="DejaVuSans-20" transform="scale(0.015625)"/>
       <path id="DejaVuSans-6f" d="M 1959 3097 
Q 1497 3097 1228 2736 
Q 959 2375 959 1747 
Q 959 1119 1226 758 
Q 1494 397 1959 397 
Q 2419 397 2687 759 
Q 2956 1122 2956 1747 
Q 2956 2369 2687 2733 
Q 2419 3097 1959 3097 
z
M 1959 3584 
Q 2709 3584 3137 3096 
Q 3566 2609 3566 1747 
Q 3566 888 3137 398 
Q 2709 -91 1959 -91 
Q 1206 -91 779 398 
Q 353 888 353 1747 
Q 353 2609 779 3096 
Q 1206 3584 1959 3584 
z
" transform="scale(0.015625)"/>
       <path id="DejaVuSans-66" d="M 2375 4863 
L 2375 4384 
L 1825 4384 
Q 1516 4384 1395 4259 
Q 1275 4134 1275 3809 
L 1275 3500 
L 2222 3500 
L 2222 3053 
L 1275 3053 
L 1275 0 
L 697 0 
L 697 3053 
L 147 3053 
L 147 3500 
L 697 3500 
L 697 3744 
Q 697 4328 969 4595 
Q 1241 4863 1831 4863 
L 2375 4863 
z
" transform="scale(0.015625)"/>
       <path id="DejaVuSans-70" d="M 1159 525 
L 1159 -1331 
L 581 -1331 
L 581 3500 
L 1159 3500 
L 1159 2969 
Q 1341 3281 1617 3432 
Q 1894 3584 2278 3584 
Q 2916 3584 3314 3078 
Q 3713 2572 3713 1747 
Q 3713 922 3314 415 
Q 2916 -91 2278 -91 
Q 1894 -91 1617 61 
Q 1341 213 1159 525 
z
M 3116 1747 
Q 3116 2381 2855 2742 
Q 2594 3103 2138 3103 
Q 1681 3103 1420 2742 
Q 1159 2381 1159 1747 
Q 1159 1113 1420 752 
Q 1681 391 2138 391 
Q 2594 391 2855 752 
Q 3116 1113 3116 1747 
z
" transform="scale(0.015625)"/>
       <path id="DejaVuSans-69" d="M 603 3500 
L 1178 3500 
L 1178 0 
L 603 0 
L 603 3500 
z
M 603 4863 
L 1178 4863 
L 1178 4134 
L 603 4134 
L 603 4863 
z
" transform="scale(0.015625)"/>
       <path id="DejaVuSans-2c" d="M 750 794 
L 1409 794 
L 1409 256 
L 897 -744 
L 494 -744 
L 750 256 
L 750 794 
z
" transform="scale(0.015625)"/>
       <path id="DejaVuSans-28" d="M 1984 4856 
Q 1566 4138 1362 3434 
Q 1159 2731 1159 2009 
Q 1159 1288 1364 580 
Q 1569 -128 1984 -844 
L 1484 -844 
Q 1016 -109 783 600 
Q 550 1309 550 2009 
Q 550 2706 781 3412 
Q 1013 4119 1484 4856 
L 1984 4856 
z
" transform="scale(0.015625)"/>
       <path id="DejaVuSans-6d" d="M 3328 2828 
Q 3544 3216 3844 3400 
Q 4144 3584 4550 3584 
Q 5097 3584 5394 3201 
Q 5691 2819 5691 2113 
L 5691 0 
L 5113 0 
L 5113 2094 
Q 5113 2597 4934 2840 
Q 4756 3084 4391 3084 
Q 3944 3084 3684 2787 
Q 3425 2491 3425 1978 
L 3425 0 
L 2847 0 
L 2847 2094 
Q 2847 2600 2669 2842 
Q 2491 3084 2119 3084 
Q 1678 3084 1418 2786 
Q 1159 2488 1159 1978 
L 1159 0 
L 581 0 
L 581 3500 
L 1159 3500 
L 1159 2956 
Q 1356 3278 1631 3431 
Q 1906 3584 2284 3584 
Q 2666 3584 2933 3390 
Q 3200 3197 3328 2828 
z
" transform="scale(0.015625)"/>
       <path id="DejaVuSans-29" d="M 513 4856 
L 1013 4856 
Q 1481 4119 1714 3412 
Q 1947 2706 1947 2009 
Q 1947 1309 1714 600 
Q 1481 -109 1013 -844 
L 513 -844 
Q 928 -128 1133 580 
Q 1338 1288 1338 2009 
Q 1338 2731 1133 3434 
Q 928 4138 513 4856 
z
" transform="scale(0.015625)"/>
      </defs>
      <use xlink:href="#DejaVuSans-4c"/>
      <use xlink:href="#DejaVuSans-65" transform="translate(53.962891 0)"/>
      <use xlink:href="#DejaVuSans-6e" transform="translate(115.486328 0)"/>
      <use xlink:href="#DejaVuSans-67" transform="translate(178.865234 0)"/>
      <use xlink:href="#DejaVuSans-74" transform="translate(242.341797 0)"/>
      <use xlink:href="#DejaVuSans-68" transform="translate(281.550781 0)"/>
      <use xlink:href="#DejaVuSans-20" transform="translate(344.929688 0)"/>
      <use xlink:href="#DejaVuSans-6f" transform="translate(376.716797 0)"/>
      <use xlink:href="#DejaVuSans-66" transform="translate(437.898438 0)"/>
      <use xlink:href="#DejaVuSans-20" transform="translate(473.103516 0)"/>
      <use xlink:href="#DejaVuSans-70" transform="translate(504.890625 0)"/>
      <use xlink:href="#DejaVuSans-69" transform="translate(568.367188 0)"/>
      <use xlink:href="#DejaVuSans-70" transform="translate(596.150391 0)"/>
      <use xlink:href="#DejaVuSans-65" transform="translate(659.626953 0)"/>
      <use xlink:href="#DejaVuSans-2c" transform="translate(721.150391 0)"/>
      <use xlink:href="#DejaVuSans-20" transform="translate(752.9375 0)"/>
      <use xlink:href="#DejaVuSans-4c" transform="translate(784.724609 0)"/>
      <use xlink:href="#DejaVuSans-20" transform="translate(840.4375 0)"/>
      <use xlink:href="#DejaVuSans-28" transform="translate(872.224609 0)"/>
      <use xlink:href="#DejaVuSans-6d" transform="translate(911.238281 0)"/>
      <use xlink:href="#DejaVuSans-29" transform="translate(1008.650391 0)"/>
     </g>
    </g>
   </g>
   <g id="matplotlib.axis_2">
    <g id="ytick_1">
     <g id="line2d_19">
      <path d="M 57.6 295.488268 
L 414.72 295.488268 
" clip-path="url(#p026a1f8c42)" style="fill: none; stroke: #b0b0b0; stroke-width: 0.8; stroke-linecap: square"/>
     </g>
     <g id="line2d_20">
      <defs>
       <path id="m49a5afc35f" d="M 0 0 
L -3.5 0 
" style="stroke: #000000; stroke-width: 0.8"/>
      </defs>
      <g>
       <use xlink:href="#m49a5afc35f" x="57.6" y="295.488268" style="stroke: #000000; stroke-width: 0.8"/>
      </g>
     </g>
     <g id="text_11">
      <!-- 0 -->
      <g transform="translate(44.2375 299.287486) scale(0.1 -0.1)">
       <use xlink:href="#DejaVuSans-30"/>
      </g>
     </g>
    </g>
    <g id="ytick_2">
     <g id="line2d_21">
      <path d="M 57.6 247.104214 
L 414.72 247.104214 
" clip-path="url(#p026a1f8c42)" style="fill: none; stroke: #b0b0b0; stroke-width: 0.8; stroke-linecap: square"/>
     </g>
     <g id="line2d_22">
      <g>
       <use xlink:href="#m49a5afc35f" x="57.6" y="247.104214" style="stroke: #000000; stroke-width: 0.8"/>
      </g>
     </g>
     <g id="text_12">
      <!-- 1 -->
      <g transform="translate(44.2375 250.903433) scale(0.1 -0.1)">
       <use xlink:href="#DejaVuSans-31"/>
      </g>
     </g>
    </g>
    <g id="ytick_3">
     <g id="line2d_23">
      <path d="M 57.6 198.720161 
L 414.72 198.720161 
" clip-path="url(#p026a1f8c42)" style="fill: none; stroke: #b0b0b0; stroke-width: 0.8; stroke-linecap: square"/>
     </g>
     <g id="line2d_24">
      <g>
       <use xlink:href="#m49a5afc35f" x="57.6" y="198.720161" style="stroke: #000000; stroke-width: 0.8"/>
      </g>
     </g>
     <g id="text_13">
      <!-- 2 -->
      <g transform="translate(44.2375 202.519379) scale(0.1 -0.1)">
       <use xlink:href="#DejaVuSans-32"/>
      </g>
     </g>
    </g>
    <g id="ytick_4">
     <g id="line2d_25">
      <path d="M 57.6 150.336107 
L 414.72 150.336107 
" clip-path="url(#p026a1f8c42)" style="fill: none; stroke: #b0b0b0; stroke-width: 0.8; stroke-linecap: square"/>
     </g>
     <g id="line2d_26">
      <g>
       <use xlink:href="#m49a5afc35f" x="57.6" y="150.336107" style="stroke: #000000; stroke-width: 0.8"/>
      </g>
     </g>
     <g id="text_14">
      <!-- 3 -->
      <g transform="translate(44.2375 154.135326) scale(0.1 -0.1)">
       <use xlink:href="#DejaVuSans-33"/>
      </g>
     </g>
    </g>
    <g id="ytick_5">
     <g id="line2d_27">
      <path d="M 57.6 101.952054 
L 414.72 101.952054 
" clip-path="url(#p026a1f8c42)" style="fill: none; stroke: #b0b0b0; stroke-width: 0.8; stroke-linecap: square"/>
     </g>
     <g id="line2d_28">
      <g>
       <use xlink:href="#m49a5afc35f" x="57.6" y="101.952054" style="stroke: #000000; stroke-width: 0.8"/>
      </g>
     </g>
     <g id="text_15">
      <!-- 4 -->
      <g transform="translate(44.2375 105.751272) scale(0.1 -0.1)">
       <use xlink:href="#DejaVuSans-34"/>
      </g>
     </g>
    </g>
    <g id="ytick_6">
     <g id="line2d_29">
      <path d="M 57.6 53.568 
L 414.72 53.568 
" clip-path="url(#p026a1f8c42)" style="fill: none; stroke: #b0b0b0; stroke-width: 0.8; stroke-linecap: square"/>
     </g>
     <g id="line2d_30">
      <g>
       <use xlink:href="#m49a5afc35f" x="57.6" y="53.568" style="stroke: #000000; stroke-width: 0.8"/>
      </g>
     </g>
     <g id="text_16">
      <!-- 5 -->
      <g transform="translate(44.2375 57.367219) scale(0.1 -0.1)">
       <use xlink:href="#DejaVuSans-35"/>
      </g>
     </g>
    </g>
    <g id="text_17">
     <!-- Reduced velocity, $v_r$ -->
     <g transform="translate(38.1375 225.278) rotate(-90) scale(0.1 -0.1)">
      <defs>
       <path id="DejaVuSans-52" d="M 2841 2188 
Q 3044 2119 3236 1894 
Q 3428 1669 3622 1275 
L 4263 0 
L 3584 0 
L 2988 1197 
Q 2756 1666 2539 1819 
Q 2322 1972 1947 1972 
L 1259 1972 
L 1259 0 
L 628 0 
L 628 4666 
L 2053 4666 
Q 2853 4666 3247 4331 
Q 3641 3997 3641 3322 
Q 3641 2881 3436 2590 
Q 3231 2300 2841 2188 
z
M 1259 4147 
L 1259 2491 
L 2053 2491 
Q 2509 2491 2742 2702 
Q 2975 2913 2975 3322 
Q 2975 3731 2742 3939 
Q 2509 4147 2053 4147 
L 1259 4147 
z
" transform="scale(0.015625)"/>
       <path id="DejaVuSans-64" d="M 2906 2969 
L 2906 4863 
L 3481 4863 
L 3481 0 
L 2906 0 
L 2906 525 
Q 2725 213 2448 61 
Q 2172 -91 1784 -91 
Q 1150 -91 751 415 
Q 353 922 353 1747 
Q 353 2572 751 3078 
Q 1150 3584 1784 3584 
Q 2172 3584 2448 3432 
Q 2725 3281 2906 2969 
z
M 947 1747 
Q 947 1113 1208 752 
Q 1469 391 1925 391 
Q 2381 391 2643 752 
Q 2906 1113 2906 1747 
Q 2906 2381 2643 2742 
Q 2381 3103 1925 3103 
Q 1469 3103 1208 2742 
Q 947 2381 947 1747 
z
" transform="scale(0.015625)"/>
       <path id="DejaVuSans-75" d="M 544 1381 
L 544 3500 
L 1119 3500 
L 1119 1403 
Q 1119 906 1312 657 
Q 1506 409 1894 409 
Q 2359 409 2629 706 
Q 2900 1003 2900 1516 
L 2900 3500 
L 3475 3500 
L 3475 0 
L 2900 0 
L 2900 538 
Q 2691 219 2414 64 
Q 2138 -91 1772 -91 
Q 1169 -91 856 284 
Q 544 659 544 1381 
z
M 1991 3584 
L 1991 3584 
z
" transform="scale(0.015625)"/>
       <path id="DejaVuSans-63" d="M 3122 3366 
L 3122 2828 
Q 2878 2963 2633 3030 
Q 2388 3097 2138 3097 
Q 1578 3097 1268 2742 
Q 959 2388 959 1747 
Q 959 1106 1268 751 
Q 1578 397 2138 397 
Q 2388 397 2633 464 
Q 2878 531 3122 666 
L 3122 134 
Q 2881 22 2623 -34 
Q 2366 -91 2075 -91 
Q 1284 -91 818 406 
Q 353 903 353 1747 
Q 353 2603 823 3093 
Q 1294 3584 2113 3584 
Q 2378 3584 2631 3529 
Q 2884 3475 3122 3366 
z
" transform="scale(0.015625)"/>
       <path id="DejaVuSans-76" d="M 191 3500 
L 800 3500 
L 1894 563 
L 2988 3500 
L 3597 3500 
L 2284 0 
L 1503 0 
L 191 3500 
z
" transform="scale(0.015625)"/>
       <path id="DejaVuSans-6c" d="M 603 4863 
L 1178 4863 
L 1178 0 
L 603 0 
L 603 4863 
z
" transform="scale(0.015625)"/>
       <path id="DejaVuSans-79" d="M 2059 -325 
Q 1816 -950 1584 -1140 
Q 1353 -1331 966 -1331 
L 506 -1331 
L 506 -850 
L 844 -850 
Q 1081 -850 1212 -737 
Q 1344 -625 1503 -206 
L 1606 56 
L 191 3500 
L 800 3500 
L 1894 763 
L 2988 3500 
L 3597 3500 
L 2059 -325 
z
" transform="scale(0.015625)"/>
       <path id="DejaVuSans-Oblique-76" d="M 459 3500 
L 1069 3500 
L 1581 525 
L 3256 3500 
L 3866 3500 
L 1875 0 
L 1100 0 
L 459 3500 
z
" transform="scale(0.015625)"/>
       <path id="DejaVuSans-Oblique-72" d="M 2853 2969 
Q 2766 3016 2653 3041 
Q 2541 3066 2413 3066 
Q 1953 3066 1609 2717 
Q 1266 2369 1153 1784 
L 800 0 
L 225 0 
L 909 3500 
L 1484 3500 
L 1375 2956 
Q 1603 3259 1920 3421 
Q 2238 3584 2597 3584 
Q 2691 3584 2781 3573 
Q 2872 3563 2963 3538 
L 2853 2969 
z
" transform="scale(0.015625)"/>
      </defs>
      <use xlink:href="#DejaVuSans-52" transform="translate(0 0.015625)"/>
      <use xlink:href="#DejaVuSans-65" transform="translate(69.482422 0.015625)"/>
      <use xlink:href="#DejaVuSans-64" transform="translate(131.005859 0.015625)"/>
      <use xlink:href="#DejaVuSans-75" transform="translate(194.482422 0.015625)"/>
      <use xlink:href="#DejaVuSans-63" transform="translate(257.861328 0.015625)"/>
      <use xlink:href="#DejaVuSans-65" transform="translate(312.841797 0.015625)"/>
      <use xlink:href="#DejaVuSans-64" transform="translate(374.365234 0.015625)"/>
      <use xlink:href="#DejaVuSans-20" transform="translate(437.841797 0.015625)"/>
      <use xlink:href="#DejaVuSans-76" transform="translate(469.628906 0.015625)"/>
      <use xlink:href="#DejaVuSans-65" transform="translate(528.808594 0.015625)"/>
      <use xlink:href="#DejaVuSans-6c" transform="translate(590.332031 0.015625)"/>
      <use xlink:href="#DejaVuSans-6f" transform="translate(618.115234 0.015625)"/>
      <use xlink:href="#DejaVuSans-63" transform="translate(679.296875 0.015625)"/>
      <use xlink:href="#DejaVuSans-69" transform="translate(734.277344 0.015625)"/>
      <use xlink:href="#DejaVuSans-74" transform="translate(762.060547 0.015625)"/>
      <use xlink:href="#DejaVuSans-79" transform="translate(801.269531 0.015625)"/>
      <use xlink:href="#DejaVuSans-2c" transform="translate(860.449219 0.015625)"/>
      <use xlink:href="#DejaVuSans-20" transform="translate(892.236328 0.015625)"/>
      <use xlink:href="#DejaVuSans-Oblique-76" transform="translate(924.023438 0.015625)"/>
      <use xlink:href="#DejaVuSans-Oblique-72" transform="translate(983.203125 -16.390625) scale(0.7)"/>
     </g>
    </g>
   </g>
   <g id="line2d_31">
    <path d="M 73.832727 295.487491 
L 83.621307 295.356956 
L 93.409886 295.002648 
L 103.198465 294.424566 
L 112.987044 293.62271 
L 122.775624 292.597081 
L 132.564203 291.347678 
L 142.352782 289.874501 
L 152.141361 288.17755 
L 161.929941 286.256826 
L 171.71852 284.112329 
L 181.507099 281.744057 
L 191.295678 279.152012 
L 201.084258 276.336193 
L 210.872837 273.296601 
L 220.661416 270.033235 
L 230.449995 266.546095 
L 240.238575 262.835181 
L 250.027154 258.900494 
L 259.815733 254.742033 
L 270.420027 249.984512 
L 281.024322 244.964367 
L 291.628616 239.681599 
L 302.23291 234.136207 
L 312.837204 228.328193 
L 323.441498 222.257555 
L 334.045793 215.924293 
L 344.650087 209.328409 
L 355.254381 202.469901 
L 365.858675 195.34877 
L 376.462969 187.965015 
L 387.067264 180.318638 
L 397.671558 172.409637 
L 398.487273 171.790374 
L 398.487273 171.790374 
" clip-path="url(#p026a1f8c42)" style="fill: none; stroke: #1f77b4; stroke-width: 1.5; stroke-linecap: square"/>
   </g>
   <g id="line2d_32">
    <path d="M 73.832727 295.487634 
L 84.437021 295.364118 
L 95.041316 295.026508 
L 105.64561 294.474803 
L 116.249904 293.709003 
L 126.854198 292.729109 
L 137.458492 291.535121 
L 148.062787 290.127038 
L 158.667081 288.504861 
L 169.271375 286.668589 
L 179.875669 284.618223 
L 190.479963 282.353762 
L 201.084258 279.875207 
L 211.688552 277.182557 
L 222.292846 274.275813 
L 233.712855 270.906042 
L 245.132864 267.287972 
L 256.552873 263.421604 
L 267.972883 259.306936 
L 279.392892 254.943969 
L 290.812901 250.332704 
L 302.23291 245.473139 
L 313.652919 240.365276 
L 325.072928 235.009114 
L 336.492937 229.404653 
L 347.912947 223.551893 
L 359.332956 217.450834 
L 370.752965 211.101476 
L 382.172974 204.503819 
L 393.592983 197.657864 
L 398.487273 194.647873 
L 398.487273 194.647873 
" clip-path="url(#p026a1f8c42)" style="fill: none; stroke: #ff7f0e; stroke-width: 1.5; stroke-linecap: square"/>
   </g>
   <g id="line2d_33">
    <path d="M 73.832727 295.487739 
L 86.068451 295.352937 
L 98.304175 294.98025 
L 110.539899 294.369678 
L 122.775624 293.521221 
L 135.011348 292.434878 
L 147.247072 291.11065 
L 159.482796 289.548537 
L 171.71852 287.748538 
L 183.954244 285.710654 
L 196.189968 283.434885 
L 208.425692 280.92123 
L 220.661416 278.169691 
L 232.89714 275.180266 
L 245.132864 271.952955 
L 257.368588 268.48776 
L 269.604312 264.784679 
L 281.840037 260.843713 
L 294.075761 256.664861 
L 306.311485 252.248125 
L 318.547209 247.593503 
L 330.782933 242.700996 
L 343.018657 237.570603 
L 355.254381 232.202325 
L 367.490105 226.596162 
L 379.725829 220.752114 
L 391.961553 214.67018 
L 398.487273 211.329214 
L 398.487273 211.329214 
" clip-path="url(#p026a1f8c42)" style="fill: none; stroke: #2ca02c; stroke-width: 1.5; stroke-linecap: square"/>
   </g>
   <g id="line2d_34">
    <path d="M 73.832727 295.487818 
L 86.884166 295.358354 
L 99.935605 294.998732 
L 112.987044 294.408952 
L 126.038483 293.589013 
L 139.089922 292.538917 
L 152.141361 291.258662 
L 165.1928 289.74825 
L 178.244239 288.007679 
L 191.295678 286.03695 
L 204.347117 283.836063 
L 217.398556 281.405017 
L 230.449995 278.743814 
L 243.501434 275.852452 
L 256.552873 272.730933 
L 269.604312 269.379255 
L 282.655751 265.797419 
L 295.70719 261.985425 
L 308.75863 257.943272 
L 321.810069 253.670962 
L 334.861508 249.168494 
L 347.912947 244.435867 
L 360.964386 239.473082 
L 374.015825 234.280139 
L 387.067264 228.857038 
L 398.487273 223.923023 
L 398.487273 223.923023 
" clip-path="url(#p026a1f8c42)" style="fill: none; stroke: #d62728; stroke-width: 1.5; stroke-linecap: square"/>
   </g>
   <g id="line2d_35">
    <path d="M 73.832727 295.487879 
L 87.699881 295.362509 
L 101.567035 295.01279 
L 115.434189 294.438723 
L 129.301343 293.640308 
L 143.168497 292.617546 
L 157.035651 291.370435 
L 170.902805 289.898977 
L 184.769959 288.20317 
L 198.637113 286.283016 
L 212.504267 284.138514 
L 226.371421 281.769664 
L 240.238575 279.176466 
L 254.105729 276.35892 
L 267.972883 273.317026 
L 281.840037 270.050784 
L 295.70719 266.560194 
L 309.574344 262.845256 
L 323.441498 258.905971 
L 337.308652 254.742337 
L 351.175806 250.354356 
L 365.04296 245.742026 
L 378.910114 240.905349 
L 392.777268 235.844324 
L 398.487273 233.695164 
L 398.487273 233.695164 
" clip-path="url(#p026a1f8c42)" style="fill: none; stroke: #9467bd; stroke-width: 1.5; stroke-linecap: square"/>
   </g>
   <g id="line2d_36">
    <path d="M 73.832727 295.487928 
L 88.515596 295.365735 
L 103.198465 295.023593 
L 117.881334 294.461504 
L 132.564203 293.679466 
L 147.247072 292.67748 
L 161.929941 291.455545 
L 176.61281 290.013663 
L 191.295678 288.351833 
L 205.978547 286.470054 
L 220.661416 284.368327 
L 235.344285 282.046652 
L 250.027154 279.505029 
L 264.710023 276.743458 
L 279.392892 273.761939 
L 294.075761 270.560471 
L 308.75863 267.139056 
L 323.441498 263.497692 
L 338.124367 259.63638 
L 352.807236 255.55512 
L 367.490105 251.253912 
L 382.172974 246.732755 
L 397.671558 241.721807 
L 398.487273 241.451284 
L 398.487273 241.451284 
" clip-path="url(#p026a1f8c42)" style="fill: none; stroke: #8c564b; stroke-width: 1.5; stroke-linecap: square"/>
   </g>
   <g id="line2d_37">
    <path d="M 73.832727 295.488 
L 90.147026 295.370246 
L 106.461325 295.038396 
L 122.775624 294.492448 
L 139.089922 293.732402 
L 155.404221 292.758259 
L 171.71852 291.570019 
L 188.032819 290.167682 
L 204.347117 288.551247 
L 220.661416 286.720716 
L 236.975715 284.676086 
L 253.290014 282.41736 
L 269.604312 279.944536 
L 286.734326 277.117649 
L 303.86434 274.054719 
L 320.994354 270.755747 
L 338.124367 267.220733 
L 355.254381 263.449677 
L 372.384395 259.442578 
L 389.514408 255.199438 
L 398.487273 252.882637 
L 398.487273 252.882637 
" clip-path="url(#p026a1f8c42)" style="fill: none; stroke: #e377c2; stroke-width: 1.5; stroke-linecap: square"/>
   </g>
   <g id="patch_5">
    <path d="M 57.6 307.584 
L 57.6 41.472 
" style="fill: none; stroke: #000000; stroke-width: 0.8; stroke-linejoin: miter; stroke-linecap: square"/>
   </g>
   <g id="patch_6">
    <path d="M 414.72 307.584 
L 414.72 41.472 
" style="fill: none; stroke: #000000; stroke-width: 0.8; stroke-linejoin: miter; stroke-linecap: square"/>
   </g>
   <g id="patch_7">
    <path d="M 57.6 307.584 
L 414.72 307.584 
" style="fill: none; stroke: #000000; stroke-width: 0.8; stroke-linejoin: miter; stroke-linecap: square"/>
   </g>
   <g id="patch_8">
    <path d="M 57.6 41.472 
L 414.72 41.472 
" style="fill: none; stroke: #000000; stroke-width: 0.8; stroke-linejoin: miter; stroke-linecap: square"/>
   </g>
   <g id="text_18">
    <!-- VIV check for 0.7m/s current -->
    <g transform="translate(150.5625 35.472) scale(0.12 -0.12)">
     <defs>
      <path id="DejaVuSans-56" d="M 1831 0 
L 50 4666 
L 709 4666 
L 2188 738 
L 3669 4666 
L 4325 4666 
L 2547 0 
L 1831 0 
z
" transform="scale(0.015625)"/>
      <path id="DejaVuSans-49" d="M 628 4666 
L 1259 4666 
L 1259 0 
L 628 0 
L 628 4666 
z
" transform="scale(0.015625)"/>
      <path id="DejaVuSans-6b" d="M 581 4863 
L 1159 4863 
L 1159 1991 
L 2875 3500 
L 3609 3500 
L 1753 1863 
L 3688 0 
L 2938 0 
L 1159 1709 
L 1159 0 
L 581 0 
L 581 4863 
z
" transform="scale(0.015625)"/>
      <path id="DejaVuSans-72" d="M 2631 2963 
Q 2534 3019 2420 3045 
Q 2306 3072 2169 3072 
Q 1681 3072 1420 2755 
Q 1159 2438 1159 1844 
L 1159 0 
L 581 0 
L 581 3500 
L 1159 3500 
L 1159 2956 
Q 1341 3275 1631 3429 
Q 1922 3584 2338 3584 
Q 2397 3584 2469 3576 
Q 2541 3569 2628 3553 
L 2631 2963 
z
" transform="scale(0.015625)"/>
      <path id="DejaVuSans-2e" d="M 684 794 
L 1344 794 
L 1344 0 
L 684 0 
L 684 794 
z
" transform="scale(0.015625)"/>
      <path id="DejaVuSans-37" d="M 525 4666 
L 3525 4666 
L 3525 4397 
L 1831 0 
L 1172 0 
L 2766 4134 
L 525 4134 
L 525 4666 
z
" transform="scale(0.015625)"/>
      <path id="DejaVuSans-2f" d="M 1625 4666 
L 2156 4666 
L 531 -594 
L 0 -594 
L 1625 4666 
z
" transform="scale(0.015625)"/>
      <path id="DejaVuSans-73" d="M 2834 3397 
L 2834 2853 
Q 2591 2978 2328 3040 
Q 2066 3103 1784 3103 
Q 1356 3103 1142 2972 
Q 928 2841 928 2578 
Q 928 2378 1081 2264 
Q 1234 2150 1697 2047 
L 1894 2003 
Q 2506 1872 2764 1633 
Q 3022 1394 3022 966 
Q 3022 478 2636 193 
Q 2250 -91 1575 -91 
Q 1294 -91 989 -36 
Q 684 19 347 128 
L 347 722 
Q 666 556 975 473 
Q 1284 391 1588 391 
Q 1994 391 2212 530 
Q 2431 669 2431 922 
Q 2431 1156 2273 1281 
Q 2116 1406 1581 1522 
L 1381 1569 
Q 847 1681 609 1914 
Q 372 2147 372 2553 
Q 372 3047 722 3315 
Q 1072 3584 1716 3584 
Q 2034 3584 2315 3537 
Q 2597 3491 2834 3397 
z
" transform="scale(0.015625)"/>
     </defs>
     <use xlink:href="#DejaVuSans-56"/>
     <use xlink:href="#DejaVuSans-49" transform="translate(68.408203 0)"/>
     <use xlink:href="#DejaVuSans-56" transform="translate(97.900391 0)"/>
     <use xlink:href="#DejaVuSans-20" transform="translate(166.308594 0)"/>
     <use xlink:href="#DejaVuSans-63" transform="translate(198.095703 0)"/>
     <use xlink:href="#DejaVuSans-68" transform="translate(253.076172 0)"/>
     <use xlink:href="#DejaVuSans-65" transform="translate(316.455078 0)"/>
     <use xlink:href="#DejaVuSans-63" transform="translate(377.978516 0)"/>
     <use xlink:href="#DejaVuSans-6b" transform="translate(432.958984 0)"/>
     <use xlink:href="#DejaVuSans-20" transform="translate(490.869141 0)"/>
     <use xlink:href="#DejaVuSans-66" transform="translate(522.65625 0)"/>
     <use xlink:href="#DejaVuSans-6f" transform="translate(557.861328 0)"/>
     <use xlink:href="#DejaVuSans-72" transform="translate(619.042969 0)"/>
     <use xlink:href="#DejaVuSans-20" transform="translate(660.15625 0)"/>
     <use xlink:href="#DejaVuSans-30" transform="translate(691.943359 0)"/>
     <use xlink:href="#DejaVuSans-2e" transform="translate(755.566406 0)"/>
     <use xlink:href="#DejaVuSans-37" transform="translate(787.353516 0)"/>
     <use xlink:href="#DejaVuSans-6d" transform="translate(850.976562 0)"/>
     <use xlink:href="#DejaVuSans-2f" transform="translate(948.388672 0)"/>
     <use xlink:href="#DejaVuSans-73" transform="translate(982.080078 0)"/>
     <use xlink:href="#DejaVuSans-20" transform="translate(1034.179688 0)"/>
     <use xlink:href="#DejaVuSans-63" transform="translate(1065.966797 0)"/>
     <use xlink:href="#DejaVuSans-75" transform="translate(1120.947266 0)"/>
     <use xlink:href="#DejaVuSans-72" transform="translate(1184.326172 0)"/>
     <use xlink:href="#DejaVuSans-72" transform="translate(1223.689453 0)"/>
     <use xlink:href="#DejaVuSans-65" transform="translate(1262.552734 0)"/>
     <use xlink:href="#DejaVuSans-6e" transform="translate(1324.076172 0)"/>
     <use xlink:href="#DejaVuSans-74" transform="translate(1387.455078 0)"/>
    </g>
   </g>
   <g id="legend_1">
    <g id="patch_9">
     <path d="M 233.32 152.218875 
L 407.72 152.218875 
Q 409.72 152.218875 409.72 150.218875 
L 409.72 48.472 
Q 409.72 46.472 407.72 46.472 
L 233.32 46.472 
Q 231.32 46.472 231.32 48.472 
L 231.32 150.218875 
Q 231.32 152.218875 233.32 152.218875 
z
" style="fill: #ffffff; opacity: 0.8; stroke: #cccccc; stroke-linejoin: miter"/>
    </g>
    <g id="line2d_38">
     <path d="M 235.32 54.570438 
L 245.32 54.570438 
L 255.32 54.570438 
" style="fill: none; stroke: #1f77b4; stroke-width: 1.5; stroke-linecap: square"/>
    </g>
    <g id="text_19">
     <!-- 406$\times$ 22 (D/t=18.5), Ks=2.0 -->
     <g transform="translate(263.32 58.070438) scale(0.1 -0.1)">
      <defs>
       <path id="DejaVuSans-36" d="M 2113 2584 
Q 1688 2584 1439 2293 
Q 1191 2003 1191 1497 
Q 1191 994 1439 701 
Q 1688 409 2113 409 
Q 2538 409 2786 701 
Q 3034 994 3034 1497 
Q 3034 2003 2786 2293 
Q 2538 2584 2113 2584 
z
M 3366 4563 
L 3366 3988 
Q 3128 4100 2886 4159 
Q 2644 4219 2406 4219 
Q 1781 4219 1451 3797 
Q 1122 3375 1075 2522 
Q 1259 2794 1537 2939 
Q 1816 3084 2150 3084 
Q 2853 3084 3261 2657 
Q 3669 2231 3669 1497 
Q 3669 778 3244 343 
Q 2819 -91 2113 -91 
Q 1303 -91 875 529 
Q 447 1150 447 2328 
Q 447 3434 972 4092 
Q 1497 4750 2381 4750 
Q 2619 4750 2861 4703 
Q 3103 4656 3366 4563 
z
" transform="scale(0.015625)"/>
       <path id="DejaVuSans-d7" d="M 4488 3438 
L 3059 2003 
L 4488 575 
L 4116 197 
L 2681 1631 
L 1247 197 
L 878 575 
L 2303 2003 
L 878 3438 
L 1247 3816 
L 2681 2381 
L 4116 3816 
L 4488 3438 
z
" transform="scale(0.015625)"/>
       <path id="DejaVuSans-44" d="M 1259 4147 
L 1259 519 
L 2022 519 
Q 2988 519 3436 956 
Q 3884 1394 3884 2338 
Q 3884 3275 3436 3711 
Q 2988 4147 2022 4147 
L 1259 4147 
z
M 628 4666 
L 1925 4666 
Q 3281 4666 3915 4102 
Q 4550 3538 4550 2338 
Q 4550 1131 3912 565 
Q 3275 0 1925 0 
L 628 0 
L 628 4666 
z
" transform="scale(0.015625)"/>
       <path id="DejaVuSans-3d" d="M 678 2906 
L 4684 2906 
L 4684 2381 
L 678 2381 
L 678 2906 
z
M 678 1631 
L 4684 1631 
L 4684 1100 
L 678 1100 
L 678 1631 
z
" transform="scale(0.015625)"/>
       <path id="DejaVuSans-38" d="M 2034 2216 
Q 1584 2216 1326 1975 
Q 1069 1734 1069 1313 
Q 1069 891 1326 650 
Q 1584 409 2034 409 
Q 2484 409 2743 651 
Q 3003 894 3003 1313 
Q 3003 1734 2745 1975 
Q 2488 2216 2034 2216 
z
M 1403 2484 
Q 997 2584 770 2862 
Q 544 3141 544 3541 
Q 544 4100 942 4425 
Q 1341 4750 2034 4750 
Q 2731 4750 3128 4425 
Q 3525 4100 3525 3541 
Q 3525 3141 3298 2862 
Q 3072 2584 2669 2484 
Q 3125 2378 3379 2068 
Q 3634 1759 3634 1313 
Q 3634 634 3220 271 
Q 2806 -91 2034 -91 
Q 1263 -91 848 271 
Q 434 634 434 1313 
Q 434 1759 690 2068 
Q 947 2378 1403 2484 
z
M 1172 3481 
Q 1172 3119 1398 2916 
Q 1625 2713 2034 2713 
Q 2441 2713 2670 2916 
Q 2900 3119 2900 3481 
Q 2900 3844 2670 4047 
Q 2441 4250 2034 4250 
Q 1625 4250 1398 4047 
Q 1172 3844 1172 3481 
z
" transform="scale(0.015625)"/>
       <path id="DejaVuSans-4b" d="M 628 4666 
L 1259 4666 
L 1259 2694 
L 3353 4666 
L 4166 4666 
L 1850 2491 
L 4331 0 
L 3500 0 
L 1259 2247 
L 1259 0 
L 628 0 
L 628 4666 
z
" transform="scale(0.015625)"/>
      </defs>
      <use xlink:href="#DejaVuSans-34" transform="translate(0 0.125)"/>
      <use xlink:href="#DejaVuSans-30" transform="translate(63.623047 0.125)"/>
      <use xlink:href="#DejaVuSans-36" transform="translate(127.246094 0.125)"/>
      <use xlink:href="#DejaVuSans-d7" transform="translate(190.869141 0.125)"/>
      <use xlink:href="#DejaVuSans-20" transform="translate(274.658203 0.125)"/>
      <use xlink:href="#DejaVuSans-32" transform="translate(306.445312 0.125)"/>
      <use xlink:href="#DejaVuSans-32" transform="translate(370.068359 0.125)"/>
      <use xlink:href="#DejaVuSans-20" transform="translate(433.691406 0.125)"/>
      <use xlink:href="#DejaVuSans-28" transform="translate(465.478516 0.125)"/>
      <use xlink:href="#DejaVuSans-44" transform="translate(504.492188 0.125)"/>
      <use xlink:href="#DejaVuSans-2f" transform="translate(581.494141 0.125)"/>
      <use xlink:href="#DejaVuSans-74" transform="translate(615.185547 0.125)"/>
      <use xlink:href="#DejaVuSans-3d" transform="translate(654.394531 0.125)"/>
      <use xlink:href="#DejaVuSans-31" transform="translate(738.183594 0.125)"/>
      <use xlink:href="#DejaVuSans-38" transform="translate(801.806641 0.125)"/>
      <use xlink:href="#DejaVuSans-2e" transform="translate(865.429688 0.125)"/>
      <use xlink:href="#DejaVuSans-35" transform="translate(897.216797 0.125)"/>
      <use xlink:href="#DejaVuSans-29" transform="translate(960.839844 0.125)"/>
      <use xlink:href="#DejaVuSans-2c" transform="translate(999.853516 0.125)"/>
      <use xlink:href="#DejaVuSans-20" transform="translate(1031.640625 0.125)"/>
      <use xlink:href="#DejaVuSans-4b" transform="translate(1063.427734 0.125)"/>
      <use xlink:href="#DejaVuSans-73" transform="translate(1129.003906 0.125)"/>
      <use xlink:href="#DejaVuSans-3d" transform="translate(1181.103516 0.125)"/>
      <use xlink:href="#DejaVuSans-32" transform="translate(1264.892578 0.125)"/>
      <use xlink:href="#DejaVuSans-2e" transform="translate(1328.515625 0.125)"/>
      <use xlink:href="#DejaVuSans-30" transform="translate(1360.302734 0.125)"/>
     </g>
    </g>
    <g id="line2d_39">
     <path d="M 235.32 69.248563 
L 245.32 69.248563 
L 255.32 69.248563 
" style="fill: none; stroke: #ff7f0e; stroke-width: 1.5; stroke-linecap: square"/>
    </g>
    <g id="text_20">
     <!-- 457$\times$ 22 (D/t=20.8), Ks=1.9 -->
     <g transform="translate(263.32 72.748563) scale(0.1 -0.1)">
      <defs>
       <path id="DejaVuSans-39" d="M 703 97 
L 703 672 
Q 941 559 1184 500 
Q 1428 441 1663 441 
Q 2288 441 2617 861 
Q 2947 1281 2994 2138 
Q 2813 1869 2534 1725 
Q 2256 1581 1919 1581 
Q 1219 1581 811 2004 
Q 403 2428 403 3163 
Q 403 3881 828 4315 
Q 1253 4750 1959 4750 
Q 2769 4750 3195 4129 
Q 3622 3509 3622 2328 
Q 3622 1225 3098 567 
Q 2575 -91 1691 -91 
Q 1453 -91 1209 -44 
Q 966 3 703 97 
z
M 1959 2075 
Q 2384 2075 2632 2365 
Q 2881 2656 2881 3163 
Q 2881 3666 2632 3958 
Q 2384 4250 1959 4250 
Q 1534 4250 1286 3958 
Q 1038 3666 1038 3163 
Q 1038 2656 1286 2365 
Q 1534 2075 1959 2075 
z
" transform="scale(0.015625)"/>
      </defs>
      <use xlink:href="#DejaVuSans-34" transform="translate(0 0.125)"/>
      <use xlink:href="#DejaVuSans-35" transform="translate(63.623047 0.125)"/>
      <use xlink:href="#DejaVuSans-37" transform="translate(119.996094 0.125)"/>
      <use xlink:href="#DejaVuSans-d7" transform="translate(183.619141 0.125)"/>
      <use xlink:href="#DejaVuSans-20" transform="translate(267.408203 0.125)"/>
      <use xlink:href="#DejaVuSans-32" transform="translate(299.195312 0.125)"/>
      <use xlink:href="#DejaVuSans-32" transform="translate(362.818359 0.125)"/>
      <use xlink:href="#DejaVuSans-20" transform="translate(426.441406 0.125)"/>
      <use xlink:href="#DejaVuSans-28" transform="translate(458.228516 0.125)"/>
      <use xlink:href="#DejaVuSans-44" transform="translate(497.242188 0.125)"/>
      <use xlink:href="#DejaVuSans-2f" transform="translate(574.244141 0.125)"/>
      <use xlink:href="#DejaVuSans-74" transform="translate(607.935547 0.125)"/>
      <use xlink:href="#DejaVuSans-3d" transform="translate(647.144531 0.125)"/>
      <use xlink:href="#DejaVuSans-32" transform="translate(730.933594 0.125)"/>
      <use xlink:href="#DejaVuSans-30" transform="translate(794.556641 0.125)"/>
      <use xlink:href="#DejaVuSans-2e" transform="translate(858.179688 0.125)"/>
      <use xlink:href="#DejaVuSans-38" transform="translate(887.341797 0.125)"/>
      <use xlink:href="#DejaVuSans-29" transform="translate(950.964844 0.125)"/>
      <use xlink:href="#DejaVuSans-2c" transform="translate(989.978516 0.125)"/>
      <use xlink:href="#DejaVuSans-20" transform="translate(1021.765625 0.125)"/>
      <use xlink:href="#DejaVuSans-4b" transform="translate(1053.552734 0.125)"/>
      <use xlink:href="#DejaVuSans-73" transform="translate(1119.128906 0.125)"/>
      <use xlink:href="#DejaVuSans-3d" transform="translate(1171.228516 0.125)"/>
      <use xlink:href="#DejaVuSans-31" transform="translate(1255.017578 0.125)"/>
      <use xlink:href="#DejaVuSans-2e" transform="translate(1318.640625 0.125)"/>
      <use xlink:href="#DejaVuSans-39" transform="translate(1350.427734 0.125)"/>
     </g>
    </g>
    <g id="line2d_40">
     <path d="M 235.32 83.926688 
L 245.32 83.926688 
L 255.32 83.926688 
" style="fill: none; stroke: #2ca02c; stroke-width: 1.5; stroke-linecap: square"/>
    </g>
    <g id="text_21">
     <!-- 508$\times$ 22 (D/t=23.1), Ks=1.8 -->
     <g transform="translate(263.32 87.426688) scale(0.1 -0.1)">
      <use xlink:href="#DejaVuSans-35" transform="translate(0 0.125)"/>
      <use xlink:href="#DejaVuSans-30" transform="translate(63.623047 0.125)"/>
      <use xlink:href="#DejaVuSans-38" transform="translate(127.246094 0.125)"/>
      <use xlink:href="#DejaVuSans-d7" transform="translate(190.869141 0.125)"/>
      <use xlink:href="#DejaVuSans-20" transform="translate(274.658203 0.125)"/>
      <use xlink:href="#DejaVuSans-32" transform="translate(306.445312 0.125)"/>
      <use xlink:href="#DejaVuSans-32" transform="translate(370.068359 0.125)"/>
      <use xlink:href="#DejaVuSans-20" transform="translate(433.691406 0.125)"/>
      <use xlink:href="#DejaVuSans-28" transform="translate(465.478516 0.125)"/>
      <use xlink:href="#DejaVuSans-44" transform="translate(504.492188 0.125)"/>
      <use xlink:href="#DejaVuSans-2f" transform="translate(581.494141 0.125)"/>
      <use xlink:href="#DejaVuSans-74" transform="translate(615.185547 0.125)"/>
      <use xlink:href="#DejaVuSans-3d" transform="translate(654.394531 0.125)"/>
      <use xlink:href="#DejaVuSans-32" transform="translate(738.183594 0.125)"/>
      <use xlink:href="#DejaVuSans-33" transform="translate(801.806641 0.125)"/>
      <use xlink:href="#DejaVuSans-2e" transform="translate(865.429688 0.125)"/>
      <use xlink:href="#DejaVuSans-31" transform="translate(897.216797 0.125)"/>
      <use xlink:href="#DejaVuSans-29" transform="translate(960.839844 0.125)"/>
      <use xlink:href="#DejaVuSans-2c" transform="translate(999.853516 0.125)"/>
      <use xlink:href="#DejaVuSans-20" transform="translate(1031.640625 0.125)"/>
      <use xlink:href="#DejaVuSans-4b" transform="translate(1063.427734 0.125)"/>
      <use xlink:href="#DejaVuSans-73" transform="translate(1129.003906 0.125)"/>
      <use xlink:href="#DejaVuSans-3d" transform="translate(1181.103516 0.125)"/>
      <use xlink:href="#DejaVuSans-31" transform="translate(1264.892578 0.125)"/>
      <use xlink:href="#DejaVuSans-2e" transform="translate(1328.515625 0.125)"/>
      <use xlink:href="#DejaVuSans-38" transform="translate(1357.677734 0.125)"/>
     </g>
    </g>
    <g id="line2d_41">
     <path d="M 235.32 98.604813 
L 245.32 98.604813 
L 255.32 98.604813 
" style="fill: none; stroke: #d62728; stroke-width: 1.5; stroke-linecap: square"/>
    </g>
    <g id="text_22">
     <!-- 559$\times$ 22 (D/t=25.4), Ks=1.8 -->
     <g transform="translate(263.32 102.104813) scale(0.1 -0.1)">
      <use xlink:href="#DejaVuSans-35" transform="translate(0 0.125)"/>
      <use xlink:href="#DejaVuSans-35" transform="translate(63.623047 0.125)"/>
      <use xlink:href="#DejaVuSans-39" transform="translate(121.746094 0.125)"/>
      <use xlink:href="#DejaVuSans-d7" transform="translate(185.369141 0.125)"/>
      <use xlink:href="#DejaVuSans-20" transform="translate(269.158203 0.125)"/>
      <use xlink:href="#DejaVuSans-32" transform="translate(300.945312 0.125)"/>
      <use xlink:href="#DejaVuSans-32" transform="translate(364.568359 0.125)"/>
      <use xlink:href="#DejaVuSans-20" transform="translate(428.191406 0.125)"/>
      <use xlink:href="#DejaVuSans-28" transform="translate(459.978516 0.125)"/>
      <use xlink:href="#DejaVuSans-44" transform="translate(498.992188 0.125)"/>
      <use xlink:href="#DejaVuSans-2f" transform="translate(575.994141 0.125)"/>
      <use xlink:href="#DejaVuSans-74" transform="translate(609.685547 0.125)"/>
      <use xlink:href="#DejaVuSans-3d" transform="translate(648.894531 0.125)"/>
      <use xlink:href="#DejaVuSans-32" transform="translate(732.683594 0.125)"/>
      <use xlink:href="#DejaVuSans-35" transform="translate(796.306641 0.125)"/>
      <use xlink:href="#DejaVuSans-2e" transform="translate(859.929688 0.125)"/>
      <use xlink:href="#DejaVuSans-34" transform="translate(891.716797 0.125)"/>
      <use xlink:href="#DejaVuSans-29" transform="translate(955.339844 0.125)"/>
      <use xlink:href="#DejaVuSans-2c" transform="translate(994.353516 0.125)"/>
      <use xlink:href="#DejaVuSans-20" transform="translate(1026.140625 0.125)"/>
      <use xlink:href="#DejaVuSans-4b" transform="translate(1057.927734 0.125)"/>
      <use xlink:href="#DejaVuSans-73" transform="translate(1123.503906 0.125)"/>
      <use xlink:href="#DejaVuSans-3d" transform="translate(1175.603516 0.125)"/>
      <use xlink:href="#DejaVuSans-31" transform="translate(1259.392578 0.125)"/>
      <use xlink:href="#DejaVuSans-2e" transform="translate(1323.015625 0.125)"/>
      <use xlink:href="#DejaVuSans-38" transform="translate(1352.177734 0.125)"/>
     </g>
    </g>
    <g id="line2d_42">
     <path d="M 235.32 113.282938 
L 245.32 113.282938 
L 255.32 113.282938 
" style="fill: none; stroke: #9467bd; stroke-width: 1.5; stroke-linecap: square"/>
    </g>
    <g id="text_23">
     <!-- 610$\times$ 22 (D/t=27.7), Ks=1.7 -->
     <g transform="translate(263.32 116.782938) scale(0.1 -0.1)">
      <use xlink:href="#DejaVuSans-36" transform="translate(0 0.125)"/>
      <use xlink:href="#DejaVuSans-31" transform="translate(63.623047 0.125)"/>
      <use xlink:href="#DejaVuSans-30" transform="translate(127.246094 0.125)"/>
      <use xlink:href="#DejaVuSans-d7" transform="translate(190.869141 0.125)"/>
      <use xlink:href="#DejaVuSans-20" transform="translate(274.658203 0.125)"/>
      <use xlink:href="#DejaVuSans-32" transform="translate(306.445312 0.125)"/>
      <use xlink:href="#DejaVuSans-32" transform="translate(370.068359 0.125)"/>
      <use xlink:href="#DejaVuSans-20" transform="translate(433.691406 0.125)"/>
      <use xlink:href="#DejaVuSans-28" transform="translate(465.478516 0.125)"/>
      <use xlink:href="#DejaVuSans-44" transform="translate(504.492188 0.125)"/>
      <use xlink:href="#DejaVuSans-2f" transform="translate(581.494141 0.125)"/>
      <use xlink:href="#DejaVuSans-74" transform="translate(615.185547 0.125)"/>
      <use xlink:href="#DejaVuSans-3d" transform="translate(654.394531 0.125)"/>
      <use xlink:href="#DejaVuSans-32" transform="translate(738.183594 0.125)"/>
      <use xlink:href="#DejaVuSans-37" transform="translate(801.806641 0.125)"/>
      <use xlink:href="#DejaVuSans-2e" transform="translate(865.429688 0.125)"/>
      <use xlink:href="#DejaVuSans-37" transform="translate(889.466797 0.125)"/>
      <use xlink:href="#DejaVuSans-29" transform="translate(953.089844 0.125)"/>
      <use xlink:href="#DejaVuSans-2c" transform="translate(992.103516 0.125)"/>
      <use xlink:href="#DejaVuSans-20" transform="translate(1023.890625 0.125)"/>
      <use xlink:href="#DejaVuSans-4b" transform="translate(1055.677734 0.125)"/>
      <use xlink:href="#DejaVuSans-73" transform="translate(1121.253906 0.125)"/>
      <use xlink:href="#DejaVuSans-3d" transform="translate(1173.353516 0.125)"/>
      <use xlink:href="#DejaVuSans-31" transform="translate(1257.142578 0.125)"/>
      <use xlink:href="#DejaVuSans-2e" transform="translate(1320.765625 0.125)"/>
      <use xlink:href="#DejaVuSans-37" transform="translate(1344.802734 0.125)"/>
     </g>
    </g>
    <g id="line2d_43">
     <path d="M 235.32 127.961063 
L 245.32 127.961063 
L 255.32 127.961063 
" style="fill: none; stroke: #8c564b; stroke-width: 1.5; stroke-linecap: square"/>
    </g>
    <g id="text_24">
     <!-- 660$\times$ 22 (D/t=30.0), Ks=1.7 -->
     <g transform="translate(263.32 131.461063) scale(0.1 -0.1)">
      <use xlink:href="#DejaVuSans-36" transform="translate(0 0.125)"/>
      <use xlink:href="#DejaVuSans-36" transform="translate(63.623047 0.125)"/>
      <use xlink:href="#DejaVuSans-30" transform="translate(127.246094 0.125)"/>
      <use xlink:href="#DejaVuSans-d7" transform="translate(190.869141 0.125)"/>
      <use xlink:href="#DejaVuSans-20" transform="translate(274.658203 0.125)"/>
      <use xlink:href="#DejaVuSans-32" transform="translate(306.445312 0.125)"/>
      <use xlink:href="#DejaVuSans-32" transform="translate(370.068359 0.125)"/>
      <use xlink:href="#DejaVuSans-20" transform="translate(433.691406 0.125)"/>
      <use xlink:href="#DejaVuSans-28" transform="translate(465.478516 0.125)"/>
      <use xlink:href="#DejaVuSans-44" transform="translate(504.492188 0.125)"/>
      <use xlink:href="#DejaVuSans-2f" transform="translate(581.494141 0.125)"/>
      <use xlink:href="#DejaVuSans-74" transform="translate(615.185547 0.125)"/>
      <use xlink:href="#DejaVuSans-3d" transform="translate(654.394531 0.125)"/>
      <use xlink:href="#DejaVuSans-33" transform="translate(738.183594 0.125)"/>
      <use xlink:href="#DejaVuSans-30" transform="translate(801.806641 0.125)"/>
      <use xlink:href="#DejaVuSans-2e" transform="translate(865.429688 0.125)"/>
      <use xlink:href="#DejaVuSans-30" transform="translate(897.216797 0.125)"/>
      <use xlink:href="#DejaVuSans-29" transform="translate(960.839844 0.125)"/>
      <use xlink:href="#DejaVuSans-2c" transform="translate(999.853516 0.125)"/>
      <use xlink:href="#DejaVuSans-20" transform="translate(1031.640625 0.125)"/>
      <use xlink:href="#DejaVuSans-4b" transform="translate(1063.427734 0.125)"/>
      <use xlink:href="#DejaVuSans-73" transform="translate(1129.003906 0.125)"/>
      <use xlink:href="#DejaVuSans-3d" transform="translate(1181.103516 0.125)"/>
      <use xlink:href="#DejaVuSans-31" transform="translate(1264.892578 0.125)"/>
      <use xlink:href="#DejaVuSans-2e" transform="translate(1328.515625 0.125)"/>
      <use xlink:href="#DejaVuSans-37" transform="translate(1352.552734 0.125)"/>
     </g>
    </g>
    <g id="line2d_44">
     <path d="M 235.32 142.639188 
L 245.32 142.639188 
L 255.32 142.639188 
" style="fill: none; stroke: #e377c2; stroke-width: 1.5; stroke-linecap: square"/>
    </g>
    <g id="text_25">
     <!-- 762$\times$ 22 (D/t=34.6), Ks=1.7 -->
     <g transform="translate(263.32 146.139188) scale(0.1 -0.1)">
      <use xlink:href="#DejaVuSans-37" transform="translate(0 0.125)"/>
      <use xlink:href="#DejaVuSans-36" transform="translate(63.623047 0.125)"/>
      <use xlink:href="#DejaVuSans-32" transform="translate(127.246094 0.125)"/>
      <use xlink:href="#DejaVuSans-d7" transform="translate(190.869141 0.125)"/>
      <use xlink:href="#DejaVuSans-20" transform="translate(274.658203 0.125)"/>
      <use xlink:href="#DejaVuSans-32" transform="translate(306.445312 0.125)"/>
      <use xlink:href="#DejaVuSans-32" transform="translate(370.068359 0.125)"/>
      <use xlink:href="#DejaVuSans-20" transform="translate(433.691406 0.125)"/>
      <use xlink:href="#DejaVuSans-28" transform="translate(465.478516 0.125)"/>
      <use xlink:href="#DejaVuSans-44" transform="translate(504.492188 0.125)"/>
      <use xlink:href="#DejaVuSans-2f" transform="translate(581.494141 0.125)"/>
      <use xlink:href="#DejaVuSans-74" transform="translate(615.185547 0.125)"/>
      <use xlink:href="#DejaVuSans-3d" transform="translate(654.394531 0.125)"/>
      <use xlink:href="#DejaVuSans-33" transform="translate(738.183594 0.125)"/>
      <use xlink:href="#DejaVuSans-34" transform="translate(801.806641 0.125)"/>
      <use xlink:href="#DejaVuSans-2e" transform="translate(865.429688 0.125)"/>
      <use xlink:href="#DejaVuSans-36" transform="translate(897.216797 0.125)"/>
      <use xlink:href="#DejaVuSans-29" transform="translate(960.839844 0.125)"/>
      <use xlink:href="#DejaVuSans-2c" transform="translate(999.853516 0.125)"/>
      <use xlink:href="#DejaVuSans-20" transform="translate(1031.640625 0.125)"/>
      <use xlink:href="#DejaVuSans-4b" transform="translate(1063.427734 0.125)"/>
      <use xlink:href="#DejaVuSans-73" transform="translate(1129.003906 0.125)"/>
      <use xlink:href="#DejaVuSans-3d" transform="translate(1181.103516 0.125)"/>
      <use xlink:href="#DejaVuSans-31" transform="translate(1264.892578 0.125)"/>
      <use xlink:href="#DejaVuSans-2e" transform="translate(1328.515625 0.125)"/>
      <use xlink:href="#DejaVuSans-37" transform="translate(1352.552734 0.125)"/>
     </g>
    </g>
   </g>
  </g>
 </g>
 <defs>
  <clipPath id="p026a1f8c42">
   <rect x="57.6" y="41.472" width="357.12" height="266.112"/>
  </clipPath>
 </defs>
</svg>
